<svg xmlns="http://www.w3.org/2000/svg" xmlns:xlink="http://www.w3.org/1999/xlink" width="500" zoomAndPan="magnify" viewBox="0 0 375 374.999991" height="500" preserveAspectRatio="xMidYMid meet" version="1.2"><defs><clipPath id="80394b8128"><path d="M 47.121094 209.355469 L 323 209.355469 L 323 240.957031 L 47.121094 240.957031 Z M 47.121094 209.355469 "/></clipPath><clipPath id="566dac531a"><path d="M 62.921875 209.355469 L 307.140625 209.355469 C 311.332031 209.355469 315.347656 211.019531 318.3125 213.984375 C 321.277344 216.945312 322.941406 220.964844 322.941406 225.15625 C 322.941406 229.347656 321.277344 233.367188 318.3125 236.328125 C 315.347656 239.292969 311.332031 240.957031 307.140625 240.957031 L 62.921875 240.957031 C 58.730469 240.957031 54.710938 239.292969 51.75 236.328125 C 48.785156 233.367188 47.121094 229.347656 47.121094 225.15625 C 47.121094 220.964844 48.785156 216.945312 51.75 213.984375 C 54.710938 211.019531 58.730469 209.355469 62.921875 209.355469 Z M 62.921875 209.355469 "/></clipPath><clipPath id="686a7d1474"><path d="M 202.703125 254.867188 L 217.800781 254.867188 L 217.800781 271.652344 L 202.703125 271.652344 Z M 202.703125 254.867188 "/></clipPath><clipPath id="668c29c0e6"><path d="M 216.84375 254.867188 L 203.65625 254.867188 C 203.128906 254.867188 202.703125 255.289062 202.703125 255.820312 L 202.703125 271.640625 L 217.800781 271.640625 L 217.800781 255.820312 C 217.800781 255.289062 217.371094 254.867188 216.84375 254.867188 Z M 216.84375 254.867188 "/></clipPath><clipPath id="b8a463c971"><path d="M 202.703125 271.609375 L 217.800781 271.609375 L 217.800781 276.554688 L 202.703125 276.554688 Z M 202.703125 271.609375 "/></clipPath><clipPath id="c88260eacc"><path d="M 202.703125 271.640625 L 202.703125 275.601562 C 202.703125 276.125 203.128906 276.554688 203.65625 276.554688 L 216.84375 276.554688 C 217.371094 276.554688 217.800781 276.128906 217.800781 275.601562 L 217.800781 271.640625 Z M 202.703125 271.640625 "/></clipPath></defs><g id="bca325d95f"><rect x="0" width="375" y="0" height="374.999991" style="fill:#ffffff;fill-opacity:1;stroke:none;"/><rect x="0" width="375" y="0" height="374.999991" style="fill:#191d3a;fill-opacity:1;stroke:none;"/><g style="fill:#191d3a;fill-opacity:1;"><g transform="translate(84.396921, 271.365422)"><path style="stroke:none" d="M 187.820312 -180.628906 C 185.746094 -177.980469 183.257812 -175.425781 180.351562 -172.964844 C 178.039062 -170.96875 175.207031 -168.886719 171.851562 -166.71875 C 168.320312 -164.4375 164.285156 -162.398438 159.742188 -160.605469 L 124.136719 -146.527344 L 147.640625 -176.746094 C 146.960938 -175.875 146.582031 -174.804688 146.5 -173.542969 C 146.421875 -172.355469 146.628906 -171.324219 147.117188 -170.453125 C 147.269531 -170.183594 147.425781 -169.960938 147.585938 -169.789062 C 147.609375 -169.765625 147.621094 -169.75 147.628906 -169.746094 C 147.597656 -169.773438 147.554688 -169.804688 147.5 -169.847656 C 146.996094 -170.222656 146.222656 -170.636719 145.183594 -171.089844 C 142.4375 -172.289062 138.472656 -173.3125 133.289062 -174.171875 C 127.820312 -175.078125 121.011719 -175.527344 112.871094 -175.527344 C 108.40625 -175.527344 103.546875 -175.0625 98.300781 -174.125 C 93.28125 -173.230469 88.296875 -171.683594 83.351562 -169.488281 C 78.445312 -167.304688 73.683594 -164.382812 69.070312 -160.710938 C 64.652344 -157.203125 60.710938 -152.773438 57.25 -147.421875 C 53.742188 -142.007812 50.929688 -135.484375 48.8125 -127.84375 C 46.660156 -120.089844 45.585938 -111.015625 45.585938 -100.617188 C 45.585938 -90.363281 46.800781 -81.445312 49.238281 -73.859375 C 51.65625 -66.324219 54.820312 -59.90625 58.726562 -54.609375 C 62.632812 -49.308594 67.066406 -44.921875 72.03125 -41.449219 C 77.28125 -37.773438 82.625 -34.835938 88.0625 -32.636719 C 93.527344 -30.425781 98.859375 -28.882812 104.050781 -28.011719 C 109.421875 -27.109375 114.222656 -26.660156 118.453125 -26.660156 C 123.511719 -26.742188 128.855469 -27.125 134.488281 -27.808594 C 139.398438 -28.410156 144.839844 -29.300781 150.808594 -30.476562 C 156.410156 -31.582031 161.910156 -33.199219 167.3125 -35.324219 L 177.699219 -17.449219 C 168.296875 -9.890625 159.488281 -4.078125 151.269531 -0.0195312 C 143.261719 3.9375 136.144531 6.902344 129.921875 8.878906 C 122.425781 11.238281 115.460938 12.578125 109.027344 12.894531 L 108.769531 12.90625 L 108.515625 12.90625 C 93.953125 12.90625 80.191406 10.753906 67.230469 6.453125 C 54.082031 2.085938 42.523438 -4.269531 32.566406 -12.609375 C 22.457031 -21.078125 14.492188 -31.445312 8.664062 -43.710938 C 2.816406 -56.023438 -0.109375 -69.910156 -0.109375 -85.367188 C -0.109375 -94.753906 0.789062 -103.515625 2.585938 -111.65625 C 4.367188 -119.707031 6.726562 -127.128906 9.671875 -133.914062 C 12.609375 -140.6875 15.941406 -146.820312 19.667969 -152.304688 C 23.324219 -157.691406 27.078125 -162.460938 30.933594 -166.617188 C 34.828125 -170.8125 38.667969 -174.363281 42.445312 -177.261719 C 46.167969 -180.117188 49.476562 -182.351562 52.378906 -183.960938 C 54.894531 -185.414062 58.125 -187.066406 62.070312 -188.917969 C 65.925781 -190.726562 70.144531 -192.550781 74.726562 -194.394531 C 79.273438 -196.222656 84.066406 -198.023438 89.113281 -199.796875 C 94.265625 -201.613281 99.515625 -203.234375 104.855469 -204.664062 C 110.257812 -206.113281 115.550781 -207.269531 120.734375 -208.144531 C 126.164062 -209.054688 131.351562 -209.511719 136.289062 -209.511719 C 146.527344 -209.511719 154.902344 -209.019531 161.410156 -208.035156 C 168.257812 -206.996094 173.648438 -205.652344 177.578125 -204 C 182.902344 -201.761719 186.535156 -198.929688 188.480469 -195.496094 C 189.65625 -193.417969 190.3125 -191.304688 190.449219 -189.15625 C 190.648438 -185.980469 189.777344 -183.144531 187.839844 -180.65625 Z M 171.332031 -193.496094 C 170.03125 -191.820312 169.445312 -189.941406 169.574219 -187.851562 C 169.640625 -186.792969 169.878906 -185.90625 170.285156 -185.1875 C 170.566406 -184.691406 170.878906 -184.273438 171.21875 -183.933594 C 171.296875 -183.859375 171.363281 -183.796875 171.425781 -183.746094 C 171.035156 -184.011719 170.386719 -184.335938 169.476562 -184.71875 C 167.144531 -185.699219 163.410156 -186.578125 158.277344 -187.355469 C 152.804688 -188.183594 145.476562 -188.601562 136.289062 -188.601562 C 132.515625 -188.601562 128.488281 -188.238281 124.203125 -187.519531 C 119.675781 -186.757812 115.03125 -185.738281 110.265625 -184.460938 C 105.441406 -183.171875 100.703125 -181.707031 96.054688 -180.070312 C 91.296875 -178.398438 86.789062 -176.703125 82.53125 -174.992188 C 78.308594 -173.292969 74.449219 -171.625 70.953125 -169.984375 C 67.542969 -168.382812 64.738281 -166.949219 62.535156 -165.679688 C 60.535156 -164.570312 58.082031 -162.898438 55.175781 -160.667969 C 52.328125 -158.488281 49.359375 -155.726562 46.265625 -152.390625 C 43.128906 -149.011719 40.03125 -145.070312 36.972656 -140.558594 C 33.980469 -136.152344 31.277344 -131.164062 28.859375 -125.59375 C 26.449219 -120.035156 24.5 -113.886719 23.007812 -107.144531 C 21.539062 -100.488281 20.804688 -93.230469 20.804688 -85.367188 C 20.804688 -73.050781 23.054688 -62.15625 27.554688 -52.683594 C 32.074219 -43.167969 38.222656 -35.15625 45.996094 -28.644531 C 53.917969 -22.007812 63.191406 -16.925781 73.824219 -13.394531 C 84.644531 -9.800781 96.207031 -8.007812 108.515625 -8.007812 L 108.515625 2.449219 L 108 -7.992188 C 112.640625 -8.222656 117.839844 -9.242188 123.59375 -11.054688 C 128.808594 -12.710938 134.945312 -15.28125 142.007812 -18.769531 C 148.855469 -22.152344 156.382812 -27.144531 164.59375 -33.746094 L 171.144531 -25.597656 L 174.976562 -15.867188 C 168.398438 -13.277344 161.691406 -11.308594 154.855469 -9.960938 C 148.390625 -8.683594 142.4375 -7.714844 137.003906 -7.046875 C 130.652344 -6.277344 124.46875 -5.84375 118.453125 -5.746094 C 113.0625 -5.746094 107.105469 -6.292969 100.585938 -7.386719 C 93.890625 -8.511719 87.101562 -10.464844 80.222656 -13.246094 C 73.316406 -16.042969 66.585938 -19.730469 60.039062 -24.316406 C 53.203125 -29.097656 47.152344 -35.0625 41.890625 -42.199219 C 36.628906 -49.335938 32.441406 -57.757812 29.324219 -67.46875 C 26.222656 -77.128906 24.671875 -88.179688 24.671875 -100.617188 C 24.671875 -112.914062 26 -123.851562 28.660156 -133.433594 C 31.351562 -143.132812 35.027344 -151.582031 39.691406 -158.789062 C 44.398438 -166.054688 49.851562 -172.152344 56.054688 -177.085938 C 62.0625 -181.859375 68.328125 -185.695312 74.859375 -188.597656 C 81.351562 -191.484375 87.941406 -193.523438 94.628906 -194.714844 C 101.089844 -195.867188 107.171875 -196.441406 112.871094 -196.441406 C 122.15625 -196.441406 130.101562 -195.898438 136.703125 -194.804688 C 143.59375 -193.664062 149.207031 -192.152344 153.539062 -190.261719 C 159.226562 -187.78125 163.164062 -184.589844 165.355469 -180.6875 C 166.886719 -177.953125 167.558594 -175.121094 167.367188 -172.1875 C 167.171875 -169.175781 166.101562 -166.414062 164.148438 -163.910156 L 155.894531 -170.328125 L 152.050781 -180.050781 C 155.3125 -181.34375 158.128906 -182.753906 160.5 -184.285156 C 163.042969 -185.929688 165.15625 -187.476562 166.839844 -188.929688 C 168.65625 -190.464844 170.160156 -191.996094 171.351562 -193.519531 Z M 171.332031 -193.496094 "/></g></g><g style="fill:#ffffff;fill-opacity:1;"><g transform="translate(84.396921, 271.365422)"><path style="stroke:none" d="M 179.59375 -187.078125 C 177.957031 -184.984375 175.957031 -182.941406 173.59375 -180.953125 C 171.59375 -179.222656 169.117188 -177.40625 166.171875 -175.5 C 163.222656 -173.59375 159.796875 -171.867188 155.890625 -170.328125 C 157.160156 -171.960938 157.273438 -173.707031 156.234375 -175.5625 C 155.191406 -177.425781 152.898438 -179.128906 149.359375 -180.671875 C 145.816406 -182.210938 141.023438 -183.484375 134.984375 -184.484375 C 128.953125 -185.484375 121.582031 -185.984375 112.875 -185.984375 C 107.789062 -185.984375 102.320312 -185.460938 96.46875 -184.421875 C 90.613281 -183.378906 84.828125 -181.585938 79.109375 -179.046875 C 73.390625 -176.503906 67.875 -173.117188 62.5625 -168.890625 C 57.25 -164.671875 52.550781 -159.40625 48.46875 -153.09375 C 44.382812 -146.789062 41.140625 -139.304688 38.734375 -130.640625 C 36.328125 -121.972656 35.125 -111.96875 35.125 -100.625 C 35.125 -89.269531 36.507812 -79.28125 39.28125 -70.65625 C 42.050781 -62.039062 45.726562 -54.625 50.3125 -48.40625 C 54.894531 -42.1875 60.132812 -37.007812 66.03125 -32.875 C 71.9375 -28.75 77.972656 -25.4375 84.140625 -22.9375 C 90.316406 -20.445312 96.375 -18.703125 102.3125 -17.703125 C 108.257812 -16.703125 113.640625 -16.203125 118.453125 -16.203125 C 123.992188 -16.296875 129.757812 -16.703125 135.75 -17.421875 C 140.914062 -18.054688 146.609375 -18.988281 152.828125 -20.21875 C 159.046875 -21.445312 165.148438 -23.238281 171.140625 -25.59375 C 162.335938 -18.519531 154.171875 -13.117188 146.640625 -9.390625 C 139.109375 -5.671875 132.484375 -2.90625 126.765625 -1.09375 C 120.128906 1 114.046875 2.179688 108.515625 2.453125 C 95.078125 2.453125 82.410156 0.476562 70.515625 -3.46875 C 58.628906 -7.414062 48.21875 -13.132812 39.28125 -20.625 C 30.34375 -28.113281 23.285156 -37.300781 18.109375 -48.1875 C 12.929688 -59.082031 10.34375 -71.476562 10.34375 -85.375 C 10.34375 -93.988281 11.160156 -101.992188 12.796875 -109.390625 C 14.429688 -116.796875 16.585938 -123.582031 19.265625 -129.75 C 21.941406 -135.925781 24.957031 -141.488281 28.3125 -146.4375 C 31.675781 -151.382812 35.101562 -155.738281 38.59375 -159.5 C 42.09375 -163.269531 45.5 -166.425781 48.8125 -168.96875 C 52.125 -171.507812 55.003906 -173.460938 57.453125 -174.828125 C 59.816406 -176.179688 62.835938 -177.71875 66.515625 -179.4375 C 70.191406 -181.164062 74.226562 -182.914062 78.625 -184.6875 C 83.03125 -186.457031 87.679688 -188.203125 92.578125 -189.921875 C 97.484375 -191.648438 102.476562 -193.195312 107.5625 -194.5625 C 112.644531 -195.925781 117.613281 -197.015625 122.46875 -197.828125 C 127.320312 -198.648438 131.929688 -199.0625 136.296875 -199.0625 C 146.003906 -199.0625 153.851562 -198.601562 159.84375 -197.6875 C 165.832031 -196.78125 170.390625 -195.671875 173.515625 -194.359375 C 176.648438 -193.046875 178.601562 -191.707031 179.375 -190.34375 C 180.15625 -188.976562 180.226562 -187.890625 179.59375 -187.078125 Z M 179.59375 -187.078125 "/></g></g><g style="fill:#191d3a;fill-opacity:1;"><g transform="translate(158.968338, 324.55489)"><path style="stroke:none" d="M 128.660156 -116.28125 C 128.0625 -110.59375 126.753906 -105.316406 124.730469 -100.449219 C 122.765625 -95.71875 120.347656 -91.394531 117.480469 -87.472656 C 114.683594 -83.652344 111.648438 -80.226562 108.375 -77.203125 C 105.242188 -74.304688 102.132812 -71.753906 99.042969 -69.550781 C 95.964844 -67.347656 93.035156 -65.496094 90.261719 -63.984375 C 87.65625 -62.566406 85.519531 -61.460938 83.855469 -60.667969 L 83.765625 -60.625 L 83.679688 -60.585938 C 81.222656 -59.484375 78.574219 -58.519531 75.738281 -57.683594 C 73.292969 -57.007812 70.546875 -56.394531 67.5 -55.839844 C 64.074219 -55.21875 60.445312 -54.992188 56.613281 -55.167969 L 53.390625 -71.117188 L 66.628906 -77.414062 L 68.824219 -77.257812 C 71.246094 -77.089844 73.78125 -77.785156 76.4375 -79.34375 C 79.582031 -81.191406 82.414062 -83.847656 84.929688 -87.308594 C 87.589844 -90.964844 89.707031 -95.347656 91.289062 -100.46875 C 92.835938 -105.464844 93.390625 -110.894531 92.957031 -116.753906 C 92.632812 -120.636719 91.589844 -124.039062 89.828125 -126.957031 C 87.898438 -130.15625 85.605469 -132.832031 82.945312 -134.980469 C 80.253906 -137.15625 77.34375 -138.816406 74.21875 -139.953125 C 71.140625 -141.070312 68.238281 -141.632812 65.507812 -141.632812 C 63.105469 -141.632812 60.1875 -141.542969 56.765625 -141.367188 C 53.308594 -141.191406 49.636719 -140.925781 45.742188 -140.574219 L 44.984375 -148.925781 L 53.367188 -148.761719 L 52.65625 -111.914062 L 51.945312 -83.152344 L 51.34375 -61.507812 C 51.160156 -55.359375 50.957031 -50.140625 50.738281 -45.859375 C 50.296875 -35.769531 49.882812 -28.863281 49.503906 -25.132812 L 49.484375 -24.9375 L 49.453125 -24.742188 C 49.164062 -22.808594 48.6875 -20.84375 48.023438 -18.855469 C 47.460938 -17.171875 46.710938 -15.382812 45.769531 -13.5 C 44.738281 -11.441406 43.457031 -9.453125 41.921875 -7.535156 L 35.375 -12.773438 L 36.34375 -21.101562 C 39.191406 -20.773438 41.730469 -20.589844 43.957031 -20.558594 C 46.429688 -20.523438 48.699219 -20.503906 50.769531 -20.503906 C 55.449219 -20.503906 58.800781 -20.628906 60.828125 -20.878906 C 61.910156 -21.011719 62.742188 -21.125 63.324219 -21.21875 C 63.53125 -21.25 63.675781 -21.277344 63.757812 -21.292969 C 63.5 -21.238281 63.191406 -21.140625 62.832031 -20.996094 L 69.695312 -5.710938 C 65.867188 -3.796875 62.257812 -2.027344 58.863281 -0.40625 C 55.359375 1.269531 52 2.757812 48.785156 4.058594 C 45.355469 5.449219 42.046875 6.535156 38.859375 7.320312 C 35.394531 8.175781 31.976562 8.605469 28.605469 8.605469 L -17.957031 8.605469 L 14.546875 -13.1875 L 19.214844 -6.222656 L 11.117188 -8.402344 C 11.566406 -10.066406 12.007812 -12.09375 12.4375 -14.484375 C 12.882812 -16.941406 13.277344 -19.597656 13.621094 -22.457031 C 13.96875 -25.363281 14.269531 -28.378906 14.515625 -31.5 L 15.222656 -41.019531 C 15.648438 -48.054688 15.96875 -55.566406 16.183594 -63.550781 L 16.617188 -95.972656 L 16.835938 -109.75 L 17 -123.636719 C 17.035156 -128.195312 17.089844 -132.507812 17.164062 -136.574219 L 17.382812 -147.347656 L 25.765625 -147.175781 L 26.640625 -138.839844 L 6.878906 -136.761719 L 1.691406 -152.292969 L 25.394531 -166.515625 L 28.1875 -166.214844 C 29.980469 -166.023438 31.753906 -165.910156 33.507812 -165.878906 C 35.457031 -165.84375 37.464844 -165.824219 39.523438 -165.824219 C 42.878906 -165.824219 46.125 -165.945312 49.261719 -166.183594 C 52.542969 -166.433594 55.789062 -166.71875 58.996094 -167.039062 C 62.296875 -167.371094 65.5625 -167.683594 68.789062 -167.976562 C 72.246094 -168.289062 75.699219 -168.445312 79.15625 -168.445312 C 85.921875 -168.445312 92.398438 -167.285156 98.585938 -164.964844 C 104.898438 -162.597656 110.410156 -159.164062 115.132812 -154.667969 C 119.9375 -150.085938 123.585938 -144.550781 126.074219 -138.0625 C 128.585938 -131.511719 129.449219 -124.269531 128.664062 -116.328125 Z M 111.972656 -117.976562 C 112.5 -123.285156 111.980469 -127.976562 110.414062 -132.054688 C 108.828125 -136.191406 106.542969 -139.683594 103.558594 -142.527344 C 100.492188 -145.453125 96.871094 -147.695312 92.699219 -149.261719 C 88.40625 -150.871094 83.894531 -151.675781 79.15625 -151.675781 C 76.207031 -151.675781 73.257812 -151.542969 70.308594 -151.273438 C 67.128906 -150.984375 63.917969 -150.675781 60.667969 -150.351562 C 57.324219 -150.019531 53.945312 -149.722656 50.53125 -149.460938 C 46.972656 -149.191406 43.304688 -149.054688 39.523438 -149.054688 C 37.363281 -149.054688 35.253906 -149.074219 33.203125 -149.113281 C 30.953125 -149.152344 28.6875 -149.296875 26.402344 -149.539062 L 27.296875 -157.878906 L 31.609375 -150.6875 L 10.320312 -137.914062 L 6.003906 -145.101562 L 5.128906 -153.441406 L 34.34375 -156.507812 L 33.933594 -136.273438 C 33.859375 -132.261719 33.804688 -127.984375 33.769531 -123.441406 L 33.605469 -109.484375 L 33.386719 -95.75 L 32.949219 -63.097656 C 32.726562 -54.925781 32.394531 -47.152344 31.945312 -39.777344 L 31.234375 -30.1875 C 30.96875 -26.832031 30.648438 -23.585938 30.269531 -20.453125 C 29.886719 -17.265625 29.445312 -14.285156 28.941406 -11.503906 C 28.425781 -8.648438 27.882812 -6.164062 27.3125 -4.042969 L 26.496094 -1.007812 L 14.277344 7.183594 L 9.609375 0.21875 L 9.609375 -8.167969 L 28.605469 -8.167969 C 30.621094 -8.167969 32.699219 -8.429688 34.839844 -8.960938 C 37.253906 -9.554688 39.804688 -10.398438 42.492188 -11.484375 C 45.390625 -12.65625 48.433594 -14.007812 51.628906 -15.535156 C 54.933594 -17.113281 58.453125 -18.839844 62.195312 -20.710938 L 65.945312 -13.210938 L 69.058594 -5.425781 C 68.023438 -5.011719 65.960938 -4.613281 62.875 -4.234375 C 60.171875 -3.902344 56.136719 -3.734375 50.769531 -3.734375 C 48.617188 -3.734375 46.265625 -3.753906 43.714844 -3.789062 C 40.921875 -3.828125 37.816406 -4.046875 34.40625 -4.445312 L 19.371094 -6.195312 L 28.828125 -18.011719 C 29.621094 -19.003906 30.269531 -20 30.769531 -21 C 31.355469 -22.175781 31.804688 -23.226562 32.113281 -24.160156 C 32.472656 -25.230469 32.722656 -26.253906 32.871094 -27.230469 L 41.160156 -25.984375 L 32.820312 -26.835938 C 33.167969 -30.242188 33.558594 -36.871094 33.988281 -46.726562 C 34.203125 -50.886719 34.402344 -55.96875 34.582031 -61.976562 L 35.179688 -83.566406 L 35.890625 -112.238281 L 36.742188 -156.59375 L 44.222656 -157.273438 C 48.335938 -157.648438 52.234375 -157.929688 55.910156 -158.117188 C 59.621094 -158.308594 62.820312 -158.402344 65.507812 -158.402344 C 70.207031 -158.402344 75.019531 -157.503906 79.949219 -155.714844 C 84.828125 -153.9375 89.34375 -151.375 93.492188 -148.019531 C 97.675781 -144.636719 101.242188 -140.503906 104.1875 -135.625 C 107.300781 -130.464844 109.132812 -124.585938 109.683594 -117.988281 C 110.269531 -110.019531 109.480469 -102.527344 107.3125 -95.515625 C 105.183594 -88.625 102.242188 -82.601562 98.496094 -77.445312 C 94.605469 -72.101562 90.085938 -67.914062 84.933594 -64.886719 C 79.289062 -61.570312 73.53125 -60.117188 67.652344 -60.527344 L 68.238281 -68.894531 L 71.839844 -61.320312 L 60.59375 -55.972656 L 56.992188 -63.542969 L 57.375 -71.921875 C 59.945312 -71.804688 62.320312 -71.945312 64.5 -72.339844 C 67.058594 -72.804688 69.226562 -73.28125 71.003906 -73.773438 C 73.117188 -74.394531 75.054688 -75.097656 76.820312 -75.890625 L 80.25 -68.238281 L 76.644531 -75.808594 C 78.035156 -76.472656 79.902344 -77.441406 82.246094 -78.714844 C 84.421875 -79.898438 86.769531 -81.394531 89.296875 -83.195312 C 91.8125 -84.992188 94.378906 -87.101562 96.996094 -89.519531 C 99.472656 -91.808594 101.789062 -94.425781 103.941406 -97.371094 C 106.023438 -100.21875 107.792969 -103.390625 109.246094 -106.886719 C 110.644531 -110.246094 111.554688 -113.960938 111.980469 -118.023438 Z M 111.972656 -117.976562 "/></g></g><g style="fill:#ffffff;fill-opacity:1;"><g transform="translate(158.968338, 324.55489)"><path style="stroke:none" d="M 120.328125 -117.15625 C 119.816406 -112.28125 118.703125 -107.785156 116.984375 -103.671875 C 115.273438 -99.554688 113.179688 -95.804688 110.703125 -92.421875 C 108.234375 -89.035156 105.5625 -86.015625 102.6875 -83.359375 C 99.8125 -80.703125 96.972656 -78.375 94.171875 -76.375 C 91.367188 -74.375 88.726562 -72.695312 86.25 -71.34375 C 83.78125 -70 81.78125 -68.960938 80.25 -68.234375 C 78.132812 -67.296875 75.84375 -66.460938 73.375 -65.734375 C 71.257812 -65.148438 68.800781 -64.601562 66 -64.09375 C 63.195312 -63.582031 60.195312 -63.398438 57 -63.546875 L 68.234375 -68.890625 C 72.390625 -68.597656 76.539062 -69.671875 80.6875 -72.109375 C 84.832031 -74.554688 88.503906 -77.976562 91.703125 -82.375 C 94.910156 -86.78125 97.441406 -91.984375 99.296875 -97.984375 C 101.160156 -103.992188 101.835938 -110.457031 101.328125 -117.375 C 100.890625 -122.613281 99.453125 -127.253906 97.015625 -131.296875 C 94.578125 -135.335938 91.644531 -138.738281 88.21875 -141.5 C 84.800781 -144.269531 81.085938 -146.378906 77.078125 -147.828125 C 73.078125 -149.285156 69.222656 -150.015625 65.515625 -150.015625 C 62.960938 -150.015625 59.898438 -149.921875 56.328125 -149.734375 C 52.765625 -149.554688 48.984375 -149.285156 44.984375 -148.921875 C 44.765625 -135.171875 44.523438 -122.890625 44.265625 -112.078125 C 44.015625 -101.265625 43.78125 -91.691406 43.5625 -83.359375 C 43.34375 -75.023438 43.140625 -67.816406 42.953125 -61.734375 C 42.773438 -55.660156 42.578125 -50.515625 42.359375 -46.296875 C 41.921875 -36.316406 41.519531 -29.546875 41.15625 -25.984375 C 40.9375 -24.523438 40.578125 -23.035156 40.078125 -21.515625 C 39.640625 -20.203125 39.035156 -18.78125 38.265625 -17.25 C 37.503906 -15.71875 36.539062 -14.226562 35.375 -12.78125 C 38.507812 -12.414062 41.332031 -12.210938 43.84375 -12.171875 C 46.351562 -12.140625 48.660156 -12.125 50.765625 -12.125 C 55.785156 -12.125 59.476562 -12.269531 61.84375 -12.5625 C 64.21875 -12.851562 65.585938 -13.070312 65.953125 -13.21875 C 62.160156 -11.320312 58.585938 -9.570312 55.234375 -7.96875 C 51.890625 -6.363281 48.6875 -4.941406 45.625 -3.703125 C 42.570312 -2.472656 39.644531 -1.507812 36.84375 -0.8125 C 34.039062 -0.125 31.296875 0.21875 28.609375 0.21875 L 9.609375 0.21875 L 19.21875 -6.21875 C 19.726562 -8.113281 20.21875 -10.367188 20.6875 -12.984375 C 21.164062 -15.609375 21.582031 -18.429688 21.9375 -21.453125 C 22.300781 -24.472656 22.609375 -27.601562 22.859375 -30.84375 C 23.117188 -34.082031 23.359375 -37.265625 23.578125 -40.390625 C 24.015625 -47.597656 24.34375 -55.242188 24.5625 -63.328125 C 24.707031 -74.535156 24.851562 -85.378906 25 -95.859375 C 25.070312 -100.304688 25.144531 -104.894531 25.21875 -109.625 C 25.289062 -114.351562 25.34375 -118.988281 25.375 -123.53125 C 25.414062 -128.082031 25.472656 -132.378906 25.546875 -136.421875 C 25.617188 -140.460938 25.691406 -144.050781 25.765625 -147.1875 L 6 -145.109375 L 27.296875 -157.875 C 29.335938 -157.65625 31.359375 -157.523438 33.359375 -157.484375 C 35.359375 -157.453125 37.414062 -157.4375 39.53125 -157.4375 C 43.09375 -157.4375 46.546875 -157.5625 49.890625 -157.8125 C 53.242188 -158.070312 56.554688 -158.363281 59.828125 -158.6875 C 63.109375 -159.019531 66.347656 -159.332031 69.546875 -159.625 C 72.753906 -159.914062 75.957031 -160.0625 79.15625 -160.0625 C 84.90625 -160.0625 90.398438 -159.078125 95.640625 -157.109375 C 100.878906 -155.148438 105.445312 -152.3125 109.34375 -148.59375 C 113.238281 -144.882812 116.203125 -140.375 118.234375 -135.0625 C 120.273438 -129.75 120.972656 -123.78125 120.328125 -117.15625 Z M 120.328125 -117.15625 "/></g></g><g clip-rule="nonzero" clip-path="url(#80394b8128)"><g clip-rule="nonzero" clip-path="url(#566dac531a)"><path style=" stroke:none;fill-rule:nonzero;fill:#191d3a;fill-opacity:1;" d="M 47.121094 209.355469 L 322.90625 209.355469 L 322.90625 240.957031 L 47.121094 240.957031 Z M 47.121094 209.355469 "/></g></g><g clip-rule="nonzero" clip-path="url(#686a7d1474)"><g clip-rule="nonzero" clip-path="url(#668c29c0e6)"><path style=" stroke:none;fill-rule:nonzero;fill:#191d3a;fill-opacity:1;" d="M 202.703125 254.867188 L 217.800781 254.867188 L 217.800781 276.554688 L 202.703125 276.554688 Z M 202.703125 254.867188 "/></g></g><g clip-rule="nonzero" clip-path="url(#b8a463c971)"><g clip-rule="nonzero" clip-path="url(#c88260eacc)"><path style=" stroke:none;fill-rule:nonzero;fill:#191d3a;fill-opacity:1;" d="M 202.703125 254.867188 L 217.800781 254.867188 L 217.800781 276.554688 L 202.703125 276.554688 Z M 202.703125 254.867188 "/></g></g><g style="fill:#ffffff;fill-opacity:1;"><g transform="translate(49.892662, 235.318168)"><path style="stroke:none" d="M 14.046875 -13.671875 C 13.984375 -13.097656 13.851562 -12.570312 13.65625 -12.09375 C 13.457031 -11.613281 13.210938 -11.175781 12.921875 -10.78125 C 12.628906 -10.382812 12.316406 -10.03125 11.984375 -9.71875 C 11.648438 -9.414062 11.316406 -9.144531 10.984375 -8.90625 C 10.660156 -8.675781 10.351562 -8.484375 10.0625 -8.328125 C 9.769531 -8.171875 9.535156 -8.050781 9.359375 -7.96875 C 9.117188 -7.851562 8.851562 -7.753906 8.5625 -7.671875 C 8.3125 -7.597656 8.023438 -7.53125 7.703125 -7.46875 C 7.378906 -7.414062 7.03125 -7.398438 6.65625 -7.421875 L 7.96875 -8.046875 C 8.445312 -8.003906 8.925781 -8.125 9.40625 -8.40625 C 9.894531 -8.695312 10.328125 -9.097656 10.703125 -9.609375 C 11.078125 -10.128906 11.367188 -10.738281 11.578125 -11.4375 C 11.796875 -12.132812 11.878906 -12.890625 11.828125 -13.703125 C 11.773438 -14.304688 11.601562 -14.84375 11.3125 -15.3125 C 11.03125 -15.789062 10.691406 -16.191406 10.296875 -16.515625 C 9.898438 -16.835938 9.46875 -17.082031 9 -17.25 C 8.53125 -17.414062 8.078125 -17.5 7.640625 -17.5 C 7.347656 -17.5 6.992188 -17.488281 6.578125 -17.46875 C 6.160156 -17.445312 5.71875 -17.414062 5.25 -17.375 C 5.226562 -15.769531 5.203125 -14.335938 5.171875 -13.078125 C 5.140625 -11.816406 5.109375 -10.695312 5.078125 -9.71875 C 5.054688 -8.75 5.035156 -7.910156 5.015625 -7.203125 C 4.992188 -6.492188 4.96875 -5.894531 4.9375 -5.40625 C 4.882812 -4.238281 4.835938 -3.445312 4.796875 -3.03125 C 4.773438 -2.863281 4.734375 -2.691406 4.671875 -2.515625 C 4.617188 -2.359375 4.546875 -2.191406 4.453125 -2.015625 C 4.367188 -1.835938 4.257812 -1.660156 4.125 -1.484375 C 4.488281 -1.441406 4.816406 -1.421875 5.109375 -1.421875 C 5.410156 -1.421875 5.679688 -1.421875 5.921875 -1.421875 C 6.503906 -1.421875 6.929688 -1.4375 7.203125 -1.46875 C 7.484375 -1.5 7.648438 -1.523438 7.703125 -1.546875 C 7.253906 -1.316406 6.832031 -1.109375 6.4375 -0.921875 C 6.050781 -0.742188 5.679688 -0.582031 5.328125 -0.4375 C 4.972656 -0.289062 4.628906 -0.175781 4.296875 -0.09375 C 3.972656 -0.0078125 3.65625 0.03125 3.34375 0.03125 L 1.125 0.03125 L 2.25 -0.71875 C 2.300781 -0.945312 2.351562 -1.210938 2.40625 -1.515625 C 2.46875 -1.816406 2.519531 -2.144531 2.5625 -2.5 C 2.601562 -2.851562 2.640625 -3.21875 2.671875 -3.59375 C 2.703125 -3.976562 2.726562 -4.351562 2.75 -4.71875 C 2.800781 -5.550781 2.835938 -6.441406 2.859375 -7.390625 C 2.878906 -8.703125 2.898438 -9.96875 2.921875 -11.1875 C 2.929688 -11.707031 2.9375 -12.242188 2.9375 -12.796875 C 2.945312 -13.347656 2.953125 -13.890625 2.953125 -14.421875 C 2.960938 -14.953125 2.972656 -15.453125 2.984375 -15.921875 C 2.992188 -16.390625 3 -16.804688 3 -17.171875 L 0.703125 -16.9375 L 3.1875 -18.421875 C 3.425781 -18.398438 3.660156 -18.382812 3.890625 -18.375 C 4.128906 -18.375 4.367188 -18.375 4.609375 -18.375 C 5.023438 -18.375 5.425781 -18.390625 5.8125 -18.421875 C 6.207031 -18.453125 6.597656 -18.484375 6.984375 -18.515625 C 7.367188 -18.554688 7.742188 -18.59375 8.109375 -18.625 C 8.484375 -18.65625 8.859375 -18.671875 9.234375 -18.671875 C 9.910156 -18.671875 10.550781 -18.554688 11.15625 -18.328125 C 11.769531 -18.097656 12.300781 -17.765625 12.75 -17.328125 C 13.207031 -16.898438 13.554688 -16.375 13.796875 -15.75 C 14.035156 -15.132812 14.117188 -14.441406 14.046875 -13.671875 Z M 14.046875 -13.671875 "/></g></g><g style="fill:#ffffff;fill-opacity:1;"><g transform="translate(66.14747, 235.318168)"><path style="stroke:none" d="M 7.703125 -1.640625 C 7.234375 -1.335938 6.847656 -1.070312 6.546875 -0.84375 C 6.253906 -0.625 5.988281 -0.445312 5.75 -0.3125 C 5.507812 -0.175781 5.273438 -0.0703125 5.046875 0 C 4.828125 0.0703125 4.5625 0.109375 4.25 0.109375 C 3.84375 0.109375 3.492188 0.0859375 3.203125 0.046875 C 2.921875 0.015625 2.632812 0 2.34375 0 C 2.195312 0 2.050781 0.00390625 1.90625 0.015625 C 1.757812 0.0234375 1.597656 0.0546875 1.421875 0.109375 C 1.648438 -0.0976562 1.863281 -0.320312 2.0625 -0.5625 C 2.257812 -0.800781 2.425781 -1.09375 2.5625 -1.4375 C 2.707031 -1.789062 2.816406 -2.207031 2.890625 -2.6875 C 2.960938 -3.175781 3 -3.765625 3 -4.453125 L 3 -17.328125 C 2.738281 -17.304688 2.421875 -17.269531 2.046875 -17.21875 C 1.671875 -17.175781 1.25 -17.125 0.78125 -17.0625 C 1.238281 -17.4375 1.648438 -17.71875 2.015625 -17.90625 C 2.390625 -18.101562 2.707031 -18.25 2.96875 -18.34375 C 3.269531 -18.445312 3.539062 -18.507812 3.78125 -18.53125 C 4.082031 -18.519531 4.410156 -18.519531 4.765625 -18.53125 C 5.128906 -18.550781 5.476562 -18.578125 5.8125 -18.609375 C 6.144531 -18.640625 6.453125 -18.675781 6.734375 -18.71875 C 7.015625 -18.769531 7.222656 -18.820312 7.359375 -18.875 C 6.960938 -18.601562 6.601562 -18.375 6.28125 -18.1875 C 5.96875 -18.007812 5.664062 -17.863281 5.375 -17.75 C 5.332031 -16.207031 5.296875 -14.828125 5.265625 -13.609375 C 5.234375 -12.398438 5.207031 -11.328125 5.1875 -10.390625 C 5.164062 -9.453125 5.148438 -8.640625 5.140625 -7.953125 C 5.128906 -7.273438 5.117188 -6.691406 5.109375 -6.203125 C 5.085938 -5.078125 5.078125 -4.304688 5.078125 -3.890625 C 5.078125 -3.578125 5.035156 -3.265625 4.953125 -2.953125 C 4.890625 -2.679688 4.789062 -2.394531 4.65625 -2.09375 C 4.519531 -1.789062 4.320312 -1.519531 4.0625 -1.28125 C 4.226562 -1.257812 4.382812 -1.25 4.53125 -1.25 C 4.6875 -1.25 4.835938 -1.25 4.984375 -1.25 C 5.410156 -1.25 5.789062 -1.265625 6.125 -1.296875 C 6.46875 -1.335938 6.753906 -1.382812 6.984375 -1.4375 C 7.253906 -1.5 7.492188 -1.566406 7.703125 -1.640625 Z M 7.703125 -1.640625 "/></g></g><g style="fill:#ffffff;fill-opacity:1;"><g transform="translate(76.247419, 235.318168)"><path style="stroke:none" d="M 7.359375 -18.875 C 6.960938 -18.601562 6.601562 -18.375 6.28125 -18.1875 C 5.96875 -18.007812 5.664062 -17.863281 5.375 -17.75 C 5.332031 -16.207031 5.296875 -14.828125 5.265625 -13.609375 C 5.234375 -12.398438 5.207031 -11.328125 5.1875 -10.390625 C 5.164062 -9.453125 5.148438 -8.640625 5.140625 -7.953125 C 5.128906 -7.273438 5.117188 -6.691406 5.109375 -6.203125 C 5.085938 -5.078125 5.078125 -4.304688 5.078125 -3.890625 C 5.078125 -3.578125 5.046875 -3.273438 4.984375 -2.984375 C 4.929688 -2.734375 4.847656 -2.46875 4.734375 -2.1875 C 4.628906 -1.914062 4.476562 -1.679688 4.28125 -1.484375 C 4.789062 -1.472656 5.269531 -1.46875 5.71875 -1.46875 C 6.164062 -1.46875 6.59375 -1.46875 7 -1.46875 C 8.15625 -1.46875 9.113281 -1.484375 9.875 -1.515625 C 10.632812 -1.546875 11.238281 -1.582031 11.6875 -1.625 C 12.132812 -1.675781 12.453125 -1.722656 12.640625 -1.765625 C 12.828125 -1.804688 12.9375 -1.832031 12.96875 -1.84375 C 12.519531 -1.539062 12.144531 -1.273438 11.84375 -1.046875 C 11.550781 -0.828125 11.285156 -0.648438 11.046875 -0.515625 C 10.816406 -0.378906 10.585938 -0.273438 10.359375 -0.203125 C 10.140625 -0.140625 9.878906 -0.109375 9.578125 -0.109375 L 7.625 -0.109375 C 7.070312 -0.109375 6.472656 -0.101562 5.828125 -0.09375 C 5.179688 -0.09375 4.5625 -0.0820312 3.96875 -0.0625 C 3.382812 -0.0507812 2.859375 -0.03125 2.390625 0 C 1.929688 0.0195312 1.609375 0.0546875 1.421875 0.109375 C 1.648438 -0.0976562 1.863281 -0.320312 2.0625 -0.5625 C 2.257812 -0.800781 2.425781 -1.09375 2.5625 -1.4375 C 2.707031 -1.789062 2.816406 -2.207031 2.890625 -2.6875 C 2.960938 -3.175781 3 -3.765625 3 -4.453125 L 3 -17.328125 C 2.738281 -17.304688 2.421875 -17.269531 2.046875 -17.21875 C 1.671875 -17.175781 1.25 -17.125 0.78125 -17.0625 C 1.238281 -17.4375 1.648438 -17.71875 2.015625 -17.90625 C 2.390625 -18.101562 2.707031 -18.25 2.96875 -18.34375 C 3.269531 -18.445312 3.539062 -18.507812 3.78125 -18.53125 C 4.082031 -18.519531 4.410156 -18.519531 4.765625 -18.53125 C 5.128906 -18.550781 5.476562 -18.578125 5.8125 -18.609375 C 6.144531 -18.640625 6.453125 -18.675781 6.734375 -18.71875 C 7.015625 -18.769531 7.222656 -18.820312 7.359375 -18.875 Z M 12.96875 -1.84375 L 12.96875 -1.859375 C 12.976562 -1.867188 12.988281 -1.875 13 -1.875 Z M 12.96875 -1.84375 "/></g></g><g style="fill:#ffffff;fill-opacity:1;"><g transform="translate(90.603527, 235.318168)"><path style="stroke:none" d="M 5.078125 -1.328125 C 4.628906 -1.066406 4.195312 -0.851562 3.78125 -0.6875 C 3.375 -0.519531 2.992188 -0.382812 2.640625 -0.28125 C 2.285156 -0.175781 1.960938 -0.101562 1.671875 -0.0625 C 1.390625 -0.0195312 1.144531 0 0.9375 0 L -0.96875 0 L 0.421875 -0.78125 C 0.566406 -0.96875 0.707031 -1.15625 0.84375 -1.34375 C 0.976562 -1.53125 1.09375 -1.703125 1.1875 -1.859375 C 1.289062 -2.035156 1.390625 -2.210938 1.484375 -2.390625 C 1.753906 -2.929688 2.144531 -3.800781 2.65625 -5 C 2.875 -5.507812 3.128906 -6.113281 3.421875 -6.8125 C 3.710938 -7.519531 4.046875 -8.335938 4.421875 -9.265625 C 4.804688 -10.203125 5.234375 -11.265625 5.703125 -12.453125 C 6.171875 -13.648438 6.695312 -14.988281 7.28125 -16.46875 L 9.484375 -18.5 L 14.484375 -1.5625 C 14.835938 -1.46875 15.175781 -1.40625 15.5 -1.375 C 15.832031 -1.351562 16.144531 -1.34375 16.4375 -1.34375 C 16.59375 -1.34375 16.734375 -1.34375 16.859375 -1.34375 C 16.984375 -1.351562 17.09375 -1.363281 17.1875 -1.375 C 17.289062 -1.382812 17.390625 -1.398438 17.484375 -1.421875 C 16.984375 -1.179688 16.550781 -0.972656 16.1875 -0.796875 C 15.820312 -0.617188 15.5 -0.46875 15.21875 -0.34375 C 14.9375 -0.226562 14.671875 -0.140625 14.421875 -0.078125 C 14.179688 -0.0234375 13.941406 0 13.703125 0 L 11.65625 0 L 12.328125 -0.421875 L 10.28125 -7.171875 C 10.03125 -7.109375 9.742188 -7.039062 9.421875 -6.96875 C 9.097656 -6.90625 8.710938 -6.847656 8.265625 -6.796875 C 7.828125 -6.753906 7.3125 -6.707031 6.71875 -6.65625 C 6.125 -6.613281 5.441406 -6.578125 4.671875 -6.546875 C 4.316406 -5.796875 3.988281 -5.125 3.6875 -4.53125 C 3.394531 -3.945312 3.128906 -3.4375 2.890625 -3 C 2.648438 -2.570312 2.4375 -2.207031 2.25 -1.90625 C 2.070312 -1.613281 1.921875 -1.378906 1.796875 -1.203125 C 1.941406 -1.171875 2.101562 -1.148438 2.28125 -1.140625 C 2.457031 -1.128906 2.632812 -1.125 2.8125 -1.125 C 3.082031 -1.125 3.351562 -1.132812 3.625 -1.15625 C 3.894531 -1.175781 4.140625 -1.195312 4.359375 -1.21875 C 4.609375 -1.257812 4.847656 -1.296875 5.078125 -1.328125 Z M 6.875 -8.0625 C 8.019531 -8.0625 9.054688 -8.085938 9.984375 -8.140625 L 8.046875 -14.609375 C 7.515625 -13.265625 7.03125 -12.0625 6.59375 -11 C 6.15625 -9.9375 5.738281 -8.957031 5.34375 -8.0625 Z M 6.875 -8.0625 "/></g></g><g style="fill:#ffffff;fill-opacity:1;"><g transform="translate(109.241282, 235.318168)"><path style="stroke:none" d="M 16.1875 -17.796875 C 16.09375 -17.742188 15.945312 -17.664062 15.75 -17.5625 C 15.582031 -17.46875 15.347656 -17.332031 15.046875 -17.15625 C 14.753906 -16.976562 14.375 -16.753906 13.90625 -16.484375 C 14.050781 -16.671875 14.117188 -16.804688 14.109375 -16.890625 C 14.097656 -16.972656 14.054688 -17.023438 13.984375 -17.046875 C 13.898438 -17.078125 13.785156 -17.082031 13.640625 -17.0625 C 13.554688 -17.039062 13.375 -17.019531 13.09375 -17 C 12.8125 -16.976562 12.460938 -16.957031 12.046875 -16.9375 C 11.628906 -16.925781 11.148438 -16.910156 10.609375 -16.890625 C 10.078125 -16.878906 9.515625 -16.867188 8.921875 -16.859375 C 8.890625 -15.441406 8.859375 -14.171875 8.828125 -13.046875 C 8.804688 -11.921875 8.785156 -10.925781 8.765625 -10.0625 C 8.742188 -9.195312 8.722656 -8.445312 8.703125 -7.8125 C 8.691406 -7.175781 8.679688 -6.628906 8.671875 -6.171875 C 8.648438 -5.117188 8.640625 -4.390625 8.640625 -3.984375 C 8.628906 -3.671875 8.585938 -3.363281 8.515625 -3.0625 C 8.441406 -2.789062 8.335938 -2.503906 8.203125 -2.203125 C 8.066406 -1.910156 7.875 -1.640625 7.625 -1.390625 C 7.78125 -1.367188 7.929688 -1.351562 8.078125 -1.34375 C 8.222656 -1.34375 8.367188 -1.34375 8.515625 -1.34375 C 8.910156 -1.34375 9.265625 -1.363281 9.578125 -1.40625 C 9.898438 -1.445312 10.175781 -1.488281 10.40625 -1.53125 C 10.632812 -1.570312 10.816406 -1.613281 10.953125 -1.65625 C 11.097656 -1.695312 11.1875 -1.726562 11.21875 -1.75 C 10.769531 -1.4375 10.394531 -1.171875 10.09375 -0.953125 C 9.800781 -0.734375 9.535156 -0.550781 9.296875 -0.40625 C 9.054688 -0.269531 8.820312 -0.164062 8.59375 -0.09375 C 8.363281 -0.03125 8.097656 0 7.796875 0 C 7.390625 0 7.039062 -0.015625 6.75 -0.046875 C 6.46875 -0.0859375 6.1875 -0.109375 5.90625 -0.109375 C 5.757812 -0.109375 5.609375 -0.0976562 5.453125 -0.078125 C 5.304688 -0.0664062 5.140625 -0.0390625 4.953125 0 C 5.191406 -0.207031 5.410156 -0.429688 5.609375 -0.671875 C 5.804688 -0.910156 5.972656 -1.203125 6.109375 -1.546875 C 6.242188 -1.898438 6.347656 -2.316406 6.421875 -2.796875 C 6.503906 -3.285156 6.546875 -3.875 6.546875 -4.5625 L 6.546875 -16.78125 C 5.804688 -16.757812 5.082031 -16.738281 4.375 -16.71875 C 3.664062 -16.707031 3.023438 -16.695312 2.453125 -16.6875 C 1.890625 -16.675781 1.414062 -16.660156 1.03125 -16.640625 C 0.644531 -16.617188 0.398438 -16.609375 0.296875 -16.609375 C 0.0546875 -16.578125 -0.113281 -16.582031 -0.21875 -16.625 C -0.320312 -16.664062 -0.367188 -16.726562 -0.359375 -16.8125 C -0.347656 -16.90625 -0.285156 -17.015625 -0.171875 -17.140625 C -0.0546875 -17.273438 0.0976562 -17.414062 0.296875 -17.5625 L 2.03125 -18.8125 C 1.90625 -18.664062 1.863281 -18.550781 1.90625 -18.46875 C 1.957031 -18.394531 2.035156 -18.335938 2.140625 -18.296875 C 2.253906 -18.253906 2.410156 -18.226562 2.609375 -18.21875 C 2.742188 -18.21875 3.019531 -18.222656 3.4375 -18.234375 C 3.851562 -18.242188 4.359375 -18.253906 4.953125 -18.265625 C 5.554688 -18.273438 6.222656 -18.285156 6.953125 -18.296875 C 7.679688 -18.316406 8.421875 -18.335938 9.171875 -18.359375 C 9.929688 -18.378906 10.675781 -18.394531 11.40625 -18.40625 C 12.144531 -18.425781 12.8125 -18.441406 13.40625 -18.453125 C 14.007812 -18.460938 14.519531 -18.472656 14.9375 -18.484375 C 15.351562 -18.503906 15.628906 -18.519531 15.765625 -18.53125 C 16.023438 -18.53125 16.210938 -18.503906 16.328125 -18.453125 C 16.453125 -18.410156 16.519531 -18.34375 16.53125 -18.25 C 16.539062 -18.164062 16.507812 -18.082031 16.4375 -18 C 16.363281 -17.914062 16.28125 -17.847656 16.1875 -17.796875 Z M 11.21875 -1.75 L 11.21875 -1.765625 C 11.226562 -1.765625 11.238281 -1.765625 11.25 -1.765625 Z M 11.21875 -1.75 "/></g></g><g style="fill:#ffffff;fill-opacity:1;"><g transform="translate(127.114458, 235.318168)"><path style="stroke:none" d="M 11.203125 -9.984375 C 11.117188 -9.953125 11.003906 -9.890625 10.859375 -9.796875 C 10.722656 -9.710938 10.53125 -9.585938 10.28125 -9.421875 C 10.03125 -9.253906 9.695312 -9.023438 9.28125 -8.734375 C 9.351562 -8.867188 9.351562 -8.96875 9.28125 -9.03125 C 9.207031 -9.101562 9.113281 -9.148438 9 -9.171875 C 8.851562 -9.203125 8.679688 -9.21875 8.484375 -9.21875 C 8.179688 -9.1875 7.742188 -9.15625 7.171875 -9.125 C 6.597656 -9.09375 5.945312 -9.0625 5.21875 -9.03125 C 5.21875 -7.675781 5.207031 -6.570312 5.1875 -5.71875 C 5.175781 -4.863281 5.164062 -4.195312 5.15625 -3.71875 C 5.144531 -3.15625 5.128906 -2.742188 5.109375 -2.484375 C 5.085938 -2.316406 5.035156 -2.148438 4.953125 -1.984375 C 4.890625 -1.835938 4.78125 -1.679688 4.625 -1.515625 C 4.476562 -1.359375 4.273438 -1.21875 4.015625 -1.09375 L 9.78125 -1.09375 C 10.050781 -1.09375 10.328125 -1.109375 10.609375 -1.140625 C 10.847656 -1.171875 11.101562 -1.210938 11.375 -1.265625 C 11.644531 -1.328125 11.90625 -1.421875 12.15625 -1.546875 C 11.726562 -1.140625 11.304688 -0.832031 10.890625 -0.625 C 10.472656 -0.414062 10.09375 -0.265625 9.75 -0.171875 C 9.34375 -0.0546875 8.957031 0.0078125 8.59375 0.03125 C 7.757812 0.03125 6.972656 0.03125 6.234375 0.03125 C 5.492188 0.0390625 4.828125 0.0546875 4.234375 0.078125 C 3.640625 0.109375 3.128906 0.140625 2.703125 0.171875 C 2.285156 0.210938 1.984375 0.257812 1.796875 0.3125 C 2.054688 0.0507812 2.257812 -0.203125 2.40625 -0.453125 C 2.5625 -0.710938 2.675781 -1 2.75 -1.3125 C 2.820312 -1.625 2.867188 -1.976562 2.890625 -2.375 C 2.921875 -2.769531 2.929688 -3.238281 2.921875 -3.78125 L 2.921875 -9.015625 C 2.671875 -9.015625 2.425781 -9.015625 2.1875 -9.015625 C 1.957031 -9.023438 1.734375 -9.039062 1.515625 -9.0625 L 2.921875 -9.78125 C 2.921875 -10.238281 2.914062 -10.71875 2.90625 -11.21875 C 2.90625 -11.726562 2.90625 -12.269531 2.90625 -12.84375 C 2.90625 -13.425781 2.898438 -14.050781 2.890625 -14.71875 C 2.890625 -15.382812 2.890625 -16.113281 2.890625 -16.90625 C 2.503906 -16.90625 2.140625 -16.910156 1.796875 -16.921875 C 1.460938 -16.929688 1.148438 -16.941406 0.859375 -16.953125 L 3.234375 -18.21875 C 4.847656 -18.21875 6.222656 -18.226562 7.359375 -18.25 C 8.503906 -18.269531 9.453125 -18.296875 10.203125 -18.328125 C 11.066406 -18.359375 11.789062 -18.390625 12.375 -18.421875 C 12.664062 -18.421875 12.851562 -18.394531 12.9375 -18.34375 C 13.03125 -18.300781 13.066406 -18.253906 13.046875 -18.203125 C 13.035156 -18.148438 12.988281 -18.09375 12.90625 -18.03125 C 12.820312 -17.96875 12.742188 -17.925781 12.671875 -17.90625 C 12.609375 -17.863281 12.484375 -17.789062 12.296875 -17.6875 C 12.128906 -17.59375 11.898438 -17.445312 11.609375 -17.25 C 11.316406 -17.050781 10.914062 -16.78125 10.40625 -16.4375 C 10.582031 -16.625 10.65625 -16.757812 10.625 -16.84375 C 10.601562 -16.9375 10.546875 -17.003906 10.453125 -17.046875 C 10.335938 -17.085938 10.179688 -17.109375 9.984375 -17.109375 C 9.828125 -17.085938 9.585938 -17.070312 9.265625 -17.0625 C 8.941406 -17.050781 8.5625 -17.035156 8.125 -17.015625 C 7.695312 -17.003906 7.234375 -16.988281 6.734375 -16.96875 C 6.234375 -16.957031 5.722656 -16.945312 5.203125 -16.9375 C 5.210938 -15.570312 5.21875 -14.347656 5.21875 -13.265625 C 5.21875 -12.191406 5.21875 -11.207031 5.21875 -10.3125 C 6.09375 -10.3125 6.875 -10.320312 7.5625 -10.34375 C 8.25 -10.375 8.84375 -10.398438 9.34375 -10.421875 C 9.914062 -10.453125 10.425781 -10.484375 10.875 -10.515625 C 11.15625 -10.523438 11.34375 -10.503906 11.4375 -10.453125 C 11.53125 -10.410156 11.566406 -10.359375 11.546875 -10.296875 C 11.535156 -10.242188 11.488281 -10.1875 11.40625 -10.125 C 11.320312 -10.0625 11.253906 -10.015625 11.203125 -9.984375 Z M 11.203125 -9.984375 "/></g></g><g style="fill:#ffffff;fill-opacity:1;"><g transform="translate(142.413548, 235.318168)"><path style="stroke:none" d="M 12.125 -5.375 C 12.125 -4.945312 11.984375 -4.5 11.703125 -4.03125 C 11.421875 -3.570312 11.050781 -3.128906 10.59375 -2.703125 C 10.144531 -2.273438 9.640625 -1.867188 9.078125 -1.484375 C 8.515625 -1.109375 7.945312 -0.769531 7.375 -0.46875 C 6.800781 -0.175781 6.25 0.0507812 5.71875 0.21875 C 5.195312 0.394531 4.753906 0.488281 4.390625 0.5 C 4.035156 0.507812 3.65625 0.476562 3.25 0.40625 C 2.851562 0.332031 2.472656 0.238281 2.109375 0.125 C 1.753906 0.0078125 1.429688 -0.113281 1.140625 -0.25 C 0.859375 -0.382812 0.671875 -0.5 0.578125 -0.59375 C 0.515625 -0.664062 0.460938 -0.738281 0.421875 -0.8125 C 0.390625 -0.894531 0.375 -0.984375 0.375 -1.078125 C 0.375 -1.179688 0.398438 -1.285156 0.453125 -1.390625 C 0.503906 -1.492188 0.59375 -1.601562 0.71875 -1.71875 C 0.84375 -1.8125 0.992188 -1.929688 1.171875 -2.078125 C 1.328125 -2.191406 1.519531 -2.34375 1.75 -2.53125 C 1.988281 -2.726562 2.285156 -2.960938 2.640625 -3.234375 C 2.515625 -3.109375 2.429688 -2.988281 2.390625 -2.875 C 2.359375 -2.769531 2.347656 -2.671875 2.359375 -2.578125 C 2.367188 -2.472656 2.398438 -2.378906 2.453125 -2.296875 C 2.546875 -2.179688 2.695312 -2.054688 2.90625 -1.921875 C 3.113281 -1.785156 3.367188 -1.660156 3.671875 -1.546875 C 3.972656 -1.429688 4.3125 -1.332031 4.6875 -1.25 C 5.070312 -1.175781 5.46875 -1.140625 5.875 -1.140625 C 6.375 -1.140625 6.867188 -1.1875 7.359375 -1.28125 C 7.859375 -1.382812 8.300781 -1.550781 8.6875 -1.78125 C 9.082031 -2.007812 9.398438 -2.3125 9.640625 -2.6875 C 9.890625 -3.070312 10.015625 -3.546875 10.015625 -4.109375 C 10.015625 -4.617188 9.890625 -5.070312 9.640625 -5.46875 C 9.398438 -5.863281 9.082031 -6.21875 8.6875 -6.53125 C 8.300781 -6.84375 7.851562 -7.128906 7.34375 -7.390625 C 6.84375 -7.648438 6.332031 -7.90625 5.8125 -8.15625 C 5.289062 -8.414062 4.773438 -8.675781 4.265625 -8.9375 C 3.765625 -9.207031 3.316406 -9.503906 2.921875 -9.828125 C 2.535156 -10.148438 2.222656 -10.519531 1.984375 -10.9375 C 1.742188 -11.351562 1.625 -11.832031 1.625 -12.375 C 1.625 -12.894531 1.75 -13.40625 2 -13.90625 C 2.257812 -14.414062 2.601562 -14.894531 3.03125 -15.34375 C 3.457031 -15.789062 3.941406 -16.203125 4.484375 -16.578125 C 5.035156 -16.960938 5.597656 -17.289062 6.171875 -17.5625 C 6.753906 -17.84375 7.320312 -18.0625 7.875 -18.21875 C 8.4375 -18.382812 8.941406 -18.46875 9.390625 -18.46875 C 9.828125 -18.476562 10.242188 -18.457031 10.640625 -18.40625 C 11.035156 -18.363281 11.367188 -18.296875 11.640625 -18.203125 C 11.910156 -18.109375 12.097656 -17.988281 12.203125 -17.84375 C 12.304688 -17.707031 12.28125 -17.550781 12.125 -17.375 C 12 -17.226562 11.84375 -17.078125 11.65625 -16.921875 C 11.488281 -16.773438 11.28125 -16.613281 11.03125 -16.4375 C 10.789062 -16.257812 10.488281 -16.066406 10.125 -15.859375 C 10.195312 -15.960938 10.234375 -16.050781 10.234375 -16.125 C 10.242188 -16.207031 10.242188 -16.273438 10.234375 -16.328125 C 10.203125 -16.390625 10.164062 -16.441406 10.125 -16.484375 C 10.070312 -16.535156 9.96875 -16.585938 9.8125 -16.640625 C 9.664062 -16.703125 9.484375 -16.765625 9.265625 -16.828125 C 9.046875 -16.890625 8.796875 -16.9375 8.515625 -16.96875 C 8.234375 -17.007812 7.9375 -17.03125 7.625 -17.03125 C 7.113281 -17.03125 6.617188 -16.96875 6.140625 -16.84375 C 5.671875 -16.726562 5.253906 -16.539062 4.890625 -16.28125 C 4.535156 -16.03125 4.25 -15.707031 4.03125 -15.3125 C 3.8125 -14.925781 3.703125 -14.46875 3.703125 -13.9375 C 3.703125 -13.363281 3.820312 -12.859375 4.0625 -12.421875 C 4.3125 -11.984375 4.632812 -11.597656 5.03125 -11.265625 C 5.425781 -10.929688 5.875 -10.628906 6.375 -10.359375 C 6.882812 -10.085938 7.398438 -9.828125 7.921875 -9.578125 C 8.441406 -9.328125 8.953125 -9.066406 9.453125 -8.796875 C 9.960938 -8.535156 10.414062 -8.242188 10.8125 -7.921875 C 11.207031 -7.597656 11.523438 -7.226562 11.765625 -6.8125 C 12.003906 -6.40625 12.125 -5.925781 12.125 -5.375 Z M 12.125 -5.375 "/></g></g><g style="fill:#ffffff;fill-opacity:1;"><g transform="translate(157.496002, 235.318168)"><path style="stroke:none" d=""/></g></g><g style="fill:#ffffff;fill-opacity:1;"><g transform="translate(165.952098, 235.318168)"><path style="stroke:none" d="M 13.59375 -13.671875 C 13.53125 -13.035156 13.359375 -12.476562 13.078125 -12 C 12.804688 -11.519531 12.476562 -11.097656 12.09375 -10.734375 C 11.71875 -10.367188 11.3125 -10.054688 10.875 -9.796875 C 10.4375 -9.546875 10.019531 -9.332031 9.625 -9.15625 C 10.375 -8.351562 11.046875 -7.632812 11.640625 -7 C 12.242188 -6.375 12.78125 -5.816406 13.25 -5.328125 C 13.71875 -4.847656 14.125 -4.429688 14.46875 -4.078125 C 14.8125 -3.734375 15.109375 -3.441406 15.359375 -3.203125 C 15.929688 -2.628906 16.332031 -2.25 16.5625 -2.0625 C 16.800781 -1.875 17.0625 -1.742188 17.34375 -1.671875 C 17.625 -1.597656 17.894531 -1.5625 18.15625 -1.5625 C 18.375 -1.5625 18.582031 -1.582031 18.78125 -1.625 C 18.988281 -1.664062 19.15625 -1.710938 19.28125 -1.765625 C 18.875 -1.492188 18.515625 -1.25 18.203125 -1.03125 C 17.890625 -0.8125 17.601562 -0.625 17.34375 -0.46875 C 17.082031 -0.3125 16.832031 -0.1875 16.59375 -0.09375 C 16.363281 -0.0078125 16.128906 0.03125 15.890625 0.03125 C 15.722656 0.03125 15.554688 0.00390625 15.390625 -0.046875 C 15.222656 -0.0976562 15.046875 -0.175781 14.859375 -0.28125 C 14.679688 -0.394531 14.488281 -0.535156 14.28125 -0.703125 C 14.070312 -0.878906 13.84375 -1.085938 13.59375 -1.328125 C 13.4375 -1.484375 13.195312 -1.742188 12.875 -2.109375 C 12.550781 -2.472656 12.1875 -2.875 11.78125 -3.3125 C 11.382812 -3.757812 10.96875 -4.222656 10.53125 -4.703125 C 10.101562 -5.191406 9.695312 -5.640625 9.3125 -6.046875 C 8.925781 -6.460938 8.585938 -6.816406 8.296875 -7.109375 C 8.003906 -7.410156 7.804688 -7.597656 7.703125 -7.671875 C 7.566406 -7.742188 7.425781 -7.8125 7.28125 -7.875 C 7.164062 -7.925781 7.03125 -7.96875 6.875 -8 C 6.71875 -8.039062 6.566406 -8.054688 6.421875 -8.046875 L 8.265625 -9.3125 C 8.691406 -9.3125 9.097656 -9.410156 9.484375 -9.609375 C 9.867188 -9.804688 10.203125 -10.09375 10.484375 -10.46875 C 10.773438 -10.84375 11 -11.300781 11.15625 -11.84375 C 11.320312 -12.394531 11.390625 -13.015625 11.359375 -13.703125 C 11.335938 -14.109375 11.242188 -14.476562 11.078125 -14.8125 C 10.910156 -15.144531 10.695312 -15.441406 10.4375 -15.703125 C 10.175781 -15.972656 9.878906 -16.203125 9.546875 -16.390625 C 9.222656 -16.585938 8.882812 -16.75 8.53125 -16.875 C 8.1875 -17.007812 7.84375 -17.109375 7.5 -17.171875 C 7.15625 -17.242188 6.835938 -17.28125 6.546875 -17.28125 C 6.347656 -17.28125 6.132812 -17.273438 5.90625 -17.265625 C 5.675781 -17.253906 5.445312 -17.25 5.21875 -17.25 C 5.195312 -15.664062 5.171875 -14.25 5.140625 -13 C 5.109375 -11.75 5.078125 -10.640625 5.046875 -9.671875 C 5.023438 -8.703125 5.003906 -7.863281 4.984375 -7.15625 C 4.960938 -6.457031 4.941406 -5.863281 4.921875 -5.375 C 4.867188 -4.21875 4.820312 -3.4375 4.78125 -3.03125 C 4.75 -2.863281 4.707031 -2.691406 4.65625 -2.515625 C 4.601562 -2.359375 4.53125 -2.191406 4.4375 -2.015625 C 4.351562 -1.835938 4.242188 -1.660156 4.109375 -1.484375 C 4.472656 -1.441406 4.800781 -1.421875 5.09375 -1.421875 C 5.382812 -1.421875 5.65625 -1.421875 5.90625 -1.421875 C 6.488281 -1.421875 6.914062 -1.4375 7.1875 -1.46875 C 7.46875 -1.5 7.628906 -1.523438 7.671875 -1.546875 C 7.222656 -1.316406 6.800781 -1.109375 6.40625 -0.921875 C 6.019531 -0.742188 5.648438 -0.582031 5.296875 -0.4375 C 4.941406 -0.289062 4.597656 -0.175781 4.265625 -0.09375 C 3.941406 -0.0078125 3.625 0.03125 3.3125 0.03125 L 1.09375 0.03125 L 2.21875 -0.71875 C 2.28125 -0.945312 2.335938 -1.210938 2.390625 -1.515625 C 2.441406 -1.816406 2.488281 -2.144531 2.53125 -2.5 C 2.570312 -2.851562 2.609375 -3.21875 2.640625 -3.59375 C 2.671875 -3.976562 2.703125 -4.351562 2.734375 -4.71875 C 2.773438 -5.550781 2.8125 -6.441406 2.84375 -7.390625 C 2.851562 -8.691406 2.867188 -9.945312 2.890625 -11.15625 C 2.898438 -11.675781 2.910156 -12.207031 2.921875 -12.75 C 2.929688 -13.300781 2.9375 -13.835938 2.9375 -14.359375 C 2.9375 -14.890625 2.941406 -15.390625 2.953125 -15.859375 C 2.960938 -16.328125 2.96875 -16.742188 2.96875 -17.109375 L 0.671875 -16.9375 L 3.15625 -18.421875 C 3.300781 -18.398438 3.460938 -18.382812 3.640625 -18.375 C 3.816406 -18.375 3.992188 -18.375 4.171875 -18.375 C 4.546875 -18.375 4.910156 -18.390625 5.265625 -18.421875 C 5.617188 -18.453125 5.972656 -18.484375 6.328125 -18.515625 C 6.679688 -18.554688 7.023438 -18.59375 7.359375 -18.625 C 7.703125 -18.65625 8.046875 -18.671875 8.390625 -18.671875 C 9.078125 -18.671875 9.742188 -18.554688 10.390625 -18.328125 C 11.046875 -18.097656 11.625 -17.765625 12.125 -17.328125 C 12.625 -16.898438 13.007812 -16.375 13.28125 -15.75 C 13.5625 -15.132812 13.664062 -14.441406 13.59375 -13.671875 Z M 19.3125 -1.796875 C 19.300781 -1.785156 19.296875 -1.78125 19.296875 -1.78125 L 19.28125 -1.78125 L 19.28125 -1.765625 L 19.28125 -1.78125 L 19.296875 -1.78125 C 19.296875 -1.789062 19.300781 -1.796875 19.3125 -1.796875 Z M 19.3125 -1.796875 "/></g></g><g style="fill:#ffffff;fill-opacity:1;"><g transform="translate(185.4946, 235.318168)"><path style="stroke:none" d="M 11.203125 -9.984375 C 11.117188 -9.953125 11.003906 -9.890625 10.859375 -9.796875 C 10.722656 -9.710938 10.53125 -9.585938 10.28125 -9.421875 C 10.03125 -9.253906 9.695312 -9.023438 9.28125 -8.734375 C 9.351562 -8.867188 9.351562 -8.96875 9.28125 -9.03125 C 9.207031 -9.101562 9.113281 -9.148438 9 -9.171875 C 8.851562 -9.203125 8.679688 -9.21875 8.484375 -9.21875 C 8.179688 -9.1875 7.742188 -9.15625 7.171875 -9.125 C 6.597656 -9.09375 5.945312 -9.0625 5.21875 -9.03125 C 5.21875 -7.675781 5.207031 -6.570312 5.1875 -5.71875 C 5.175781 -4.863281 5.164062 -4.195312 5.15625 -3.71875 C 5.144531 -3.15625 5.128906 -2.742188 5.109375 -2.484375 C 5.085938 -2.316406 5.035156 -2.148438 4.953125 -1.984375 C 4.890625 -1.835938 4.78125 -1.679688 4.625 -1.515625 C 4.476562 -1.359375 4.273438 -1.21875 4.015625 -1.09375 L 9.78125 -1.09375 C 10.050781 -1.09375 10.328125 -1.109375 10.609375 -1.140625 C 10.847656 -1.171875 11.101562 -1.210938 11.375 -1.265625 C 11.644531 -1.328125 11.90625 -1.421875 12.15625 -1.546875 C 11.726562 -1.140625 11.304688 -0.832031 10.890625 -0.625 C 10.472656 -0.414062 10.09375 -0.265625 9.75 -0.171875 C 9.34375 -0.0546875 8.957031 0.0078125 8.59375 0.03125 C 7.757812 0.03125 6.972656 0.03125 6.234375 0.03125 C 5.492188 0.0390625 4.828125 0.0546875 4.234375 0.078125 C 3.640625 0.109375 3.128906 0.140625 2.703125 0.171875 C 2.285156 0.210938 1.984375 0.257812 1.796875 0.3125 C 2.054688 0.0507812 2.257812 -0.203125 2.40625 -0.453125 C 2.5625 -0.710938 2.675781 -1 2.75 -1.3125 C 2.820312 -1.625 2.867188 -1.976562 2.890625 -2.375 C 2.921875 -2.769531 2.929688 -3.238281 2.921875 -3.78125 L 2.921875 -9.015625 C 2.671875 -9.015625 2.425781 -9.015625 2.1875 -9.015625 C 1.957031 -9.023438 1.734375 -9.039062 1.515625 -9.0625 L 2.921875 -9.78125 C 2.921875 -10.238281 2.914062 -10.71875 2.90625 -11.21875 C 2.90625 -11.726562 2.90625 -12.269531 2.90625 -12.84375 C 2.90625 -13.425781 2.898438 -14.050781 2.890625 -14.71875 C 2.890625 -15.382812 2.890625 -16.113281 2.890625 -16.90625 C 2.503906 -16.90625 2.140625 -16.910156 1.796875 -16.921875 C 1.460938 -16.929688 1.148438 -16.941406 0.859375 -16.953125 L 3.234375 -18.21875 C 4.847656 -18.21875 6.222656 -18.226562 7.359375 -18.25 C 8.503906 -18.269531 9.453125 -18.296875 10.203125 -18.328125 C 11.066406 -18.359375 11.789062 -18.390625 12.375 -18.421875 C 12.664062 -18.421875 12.851562 -18.394531 12.9375 -18.34375 C 13.03125 -18.300781 13.066406 -18.253906 13.046875 -18.203125 C 13.035156 -18.148438 12.988281 -18.09375 12.90625 -18.03125 C 12.820312 -17.96875 12.742188 -17.925781 12.671875 -17.90625 C 12.609375 -17.863281 12.484375 -17.789062 12.296875 -17.6875 C 12.128906 -17.59375 11.898438 -17.445312 11.609375 -17.25 C 11.316406 -17.050781 10.914062 -16.78125 10.40625 -16.4375 C 10.582031 -16.625 10.65625 -16.757812 10.625 -16.84375 C 10.601562 -16.9375 10.546875 -17.003906 10.453125 -17.046875 C 10.335938 -17.085938 10.179688 -17.109375 9.984375 -17.109375 C 9.828125 -17.085938 9.585938 -17.070312 9.265625 -17.0625 C 8.941406 -17.050781 8.5625 -17.035156 8.125 -17.015625 C 7.695312 -17.003906 7.234375 -16.988281 6.734375 -16.96875 C 6.234375 -16.957031 5.722656 -16.945312 5.203125 -16.9375 C 5.210938 -15.570312 5.21875 -14.347656 5.21875 -13.265625 C 5.21875 -12.191406 5.21875 -11.207031 5.21875 -10.3125 C 6.09375 -10.3125 6.875 -10.320312 7.5625 -10.34375 C 8.25 -10.375 8.84375 -10.398438 9.34375 -10.421875 C 9.914062 -10.453125 10.425781 -10.484375 10.875 -10.515625 C 11.15625 -10.523438 11.34375 -10.503906 11.4375 -10.453125 C 11.53125 -10.410156 11.566406 -10.359375 11.546875 -10.296875 C 11.535156 -10.242188 11.488281 -10.1875 11.40625 -10.125 C 11.320312 -10.0625 11.253906 -10.015625 11.203125 -9.984375 Z M 11.203125 -9.984375 "/></g></g><g style="fill:#ffffff;fill-opacity:1;"><g transform="translate(200.79369, 235.318168)"><path style="stroke:none" d="M 10.75 -9.578125 C 10.6875 -9.535156 10.578125 -9.46875 10.421875 -9.375 C 10.285156 -9.28125 10.09375 -9.148438 9.84375 -8.984375 C 9.601562 -8.828125 9.28125 -8.601562 8.875 -8.3125 C 8.9375 -8.445312 8.929688 -8.546875 8.859375 -8.609375 C 8.785156 -8.679688 8.691406 -8.726562 8.578125 -8.75 C 8.429688 -8.78125 8.257812 -8.796875 8.0625 -8.796875 C 7.769531 -8.765625 7.375 -8.734375 6.875 -8.703125 C 6.382812 -8.671875 5.832031 -8.640625 5.21875 -8.609375 C 5.21875 -7.359375 5.207031 -6.332031 5.1875 -5.53125 C 5.175781 -4.738281 5.164062 -4.117188 5.15625 -3.671875 C 5.144531 -3.140625 5.128906 -2.742188 5.109375 -2.484375 C 5.085938 -2.316406 5.035156 -2.148438 4.953125 -1.984375 C 4.890625 -1.835938 4.78125 -1.679688 4.625 -1.515625 C 4.476562 -1.359375 4.273438 -1.21875 4.015625 -1.09375 C 4.535156 -1.09375 5.050781 -1.109375 5.5625 -1.140625 C 5.988281 -1.171875 6.445312 -1.210938 6.9375 -1.265625 C 7.425781 -1.328125 7.867188 -1.421875 8.265625 -1.546875 C 7.867188 -1.179688 7.460938 -0.894531 7.046875 -0.6875 C 6.640625 -0.476562 6.226562 -0.3125 5.8125 -0.1875 C 5.40625 -0.0703125 5.003906 0.0078125 4.609375 0.0625 C 4.210938 0.113281 3.84375 0.144531 3.5 0.15625 C 3.15625 0.175781 2.835938 0.191406 2.546875 0.203125 C 2.253906 0.222656 2.003906 0.257812 1.796875 0.3125 C 2.054688 0.0507812 2.257812 -0.203125 2.40625 -0.453125 C 2.5625 -0.710938 2.675781 -1 2.75 -1.3125 C 2.820312 -1.625 2.867188 -1.976562 2.890625 -2.375 C 2.921875 -2.769531 2.929688 -3.238281 2.921875 -3.78125 L 2.921875 -8.59375 C 2.691406 -8.59375 2.457031 -8.59375 2.21875 -8.59375 C 1.988281 -8.601562 1.753906 -8.617188 1.515625 -8.640625 L 2.921875 -9.359375 C 2.921875 -9.828125 2.914062 -10.328125 2.90625 -10.859375 C 2.90625 -11.390625 2.90625 -11.960938 2.90625 -12.578125 C 2.90625 -13.191406 2.898438 -13.851562 2.890625 -14.5625 C 2.890625 -15.28125 2.890625 -16.0625 2.890625 -16.90625 C 2.503906 -16.90625 2.140625 -16.910156 1.796875 -16.921875 C 1.460938 -16.929688 1.148438 -16.941406 0.859375 -16.953125 L 3.234375 -18.21875 C 4.847656 -18.21875 6.222656 -18.226562 7.359375 -18.25 C 8.503906 -18.269531 9.453125 -18.296875 10.203125 -18.328125 C 11.066406 -18.359375 11.789062 -18.390625 12.375 -18.421875 C 12.664062 -18.421875 12.851562 -18.394531 12.9375 -18.34375 C 13.03125 -18.300781 13.066406 -18.253906 13.046875 -18.203125 C 13.035156 -18.148438 12.988281 -18.09375 12.90625 -18.03125 C 12.820312 -17.96875 12.742188 -17.925781 12.671875 -17.90625 C 12.609375 -17.863281 12.484375 -17.789062 12.296875 -17.6875 C 12.128906 -17.59375 11.898438 -17.445312 11.609375 -17.25 C 11.316406 -17.050781 10.914062 -16.78125 10.40625 -16.4375 C 10.582031 -16.625 10.65625 -16.757812 10.625 -16.84375 C 10.601562 -16.9375 10.546875 -17.003906 10.453125 -17.046875 C 10.335938 -17.085938 10.179688 -17.109375 9.984375 -17.109375 C 9.828125 -17.085938 9.585938 -17.070312 9.265625 -17.0625 C 8.941406 -17.050781 8.5625 -17.035156 8.125 -17.015625 C 7.695312 -17.003906 7.234375 -16.988281 6.734375 -16.96875 C 6.234375 -16.957031 5.722656 -16.945312 5.203125 -16.9375 C 5.210938 -15.46875 5.21875 -14.15625 5.21875 -13 C 5.21875 -11.851562 5.21875 -10.804688 5.21875 -9.859375 C 6 -9.867188 6.707031 -9.882812 7.34375 -9.90625 C 7.976562 -9.925781 8.523438 -9.945312 8.984375 -9.96875 C 9.515625 -10.007812 10 -10.046875 10.4375 -10.078125 C 10.726562 -10.085938 10.921875 -10.070312 11.015625 -10.03125 C 11.109375 -9.988281 11.144531 -9.9375 11.125 -9.875 C 11.101562 -9.820312 11.050781 -9.765625 10.96875 -9.703125 C 10.882812 -9.648438 10.8125 -9.609375 10.75 -9.578125 Z M 10.75 -9.578125 "/></g></g><g style="fill:#ffffff;fill-opacity:1;"><g transform="translate(215.544825, 235.318168)"><path style="stroke:none" d="M 19.125 -9.890625 C 19.125 -8.804688 18.941406 -7.804688 18.578125 -6.890625 C 18.222656 -5.972656 17.753906 -5.132812 17.171875 -4.375 C 16.585938 -3.625 15.921875 -2.957031 15.171875 -2.375 C 14.421875 -1.789062 13.648438 -1.300781 12.859375 -0.90625 C 12.078125 -0.507812 11.304688 -0.207031 10.546875 0 C 9.796875 0.195312 9.117188 0.296875 8.515625 0.296875 C 8.003906 0.296875 7.460938 0.21875 6.890625 0.0625 C 6.328125 -0.09375 5.765625 -0.328125 5.203125 -0.640625 C 4.648438 -0.953125 4.117188 -1.335938 3.609375 -1.796875 C 3.097656 -2.265625 2.648438 -2.800781 2.265625 -3.40625 C 1.878906 -4.007812 1.570312 -4.6875 1.34375 -5.4375 C 1.113281 -6.195312 1 -7.019531 1 -7.90625 C 1 -9.101562 1.160156 -10.191406 1.484375 -11.171875 C 1.816406 -12.160156 2.253906 -13.046875 2.796875 -13.828125 C 3.347656 -14.617188 3.972656 -15.304688 4.671875 -15.890625 C 5.378906 -16.472656 6.097656 -16.957031 6.828125 -17.34375 C 7.566406 -17.726562 8.289062 -18.015625 9 -18.203125 C 9.71875 -18.398438 10.363281 -18.5 10.9375 -18.5 C 11.539062 -18.5 12.160156 -18.4375 12.796875 -18.3125 C 13.429688 -18.1875 14.050781 -17.984375 14.65625 -17.703125 C 15.257812 -17.421875 15.832031 -17.054688 16.375 -16.609375 C 16.914062 -16.160156 17.390625 -15.617188 17.796875 -14.984375 C 18.203125 -14.347656 18.523438 -13.609375 18.765625 -12.765625 C 19.003906 -11.921875 19.125 -10.960938 19.125 -9.890625 Z M 16.8125 -9.109375 C 16.8125 -10.046875 16.695312 -10.894531 16.46875 -11.65625 C 16.238281 -12.414062 15.925781 -13.085938 15.53125 -13.671875 C 15.144531 -14.265625 14.695312 -14.773438 14.1875 -15.203125 C 13.6875 -15.628906 13.160156 -15.984375 12.609375 -16.265625 C 12.066406 -16.546875 11.515625 -16.75 10.953125 -16.875 C 10.390625 -17.007812 9.859375 -17.078125 9.359375 -17.078125 C 8.566406 -17.078125 7.796875 -16.925781 7.046875 -16.625 C 6.296875 -16.332031 5.628906 -15.863281 5.046875 -15.21875 C 4.460938 -14.570312 4 -13.742188 3.65625 -12.734375 C 3.3125 -11.722656 3.140625 -10.515625 3.140625 -9.109375 C 3.140625 -8.171875 3.273438 -7.320312 3.546875 -6.5625 C 3.816406 -5.8125 4.171875 -5.148438 4.609375 -4.578125 C 5.054688 -4.015625 5.554688 -3.53125 6.109375 -3.125 C 6.660156 -2.71875 7.222656 -2.382812 7.796875 -2.125 C 8.367188 -1.875 8.925781 -1.6875 9.46875 -1.5625 C 10.007812 -1.445312 10.476562 -1.390625 10.875 -1.390625 C 11.28125 -1.390625 11.703125 -1.445312 12.140625 -1.5625 C 12.585938 -1.6875 13.03125 -1.875 13.46875 -2.125 C 13.914062 -2.382812 14.335938 -2.71875 14.734375 -3.125 C 15.140625 -3.539062 15.492188 -4.03125 15.796875 -4.59375 C 16.097656 -5.164062 16.34375 -5.828125 16.53125 -6.578125 C 16.71875 -7.328125 16.8125 -8.171875 16.8125 -9.109375 Z M 16.8125 -9.109375 "/></g></g><g style="fill:#ffffff;fill-opacity:1;"><g transform="translate(237.597703, 235.318168)"><path style="stroke:none" d="M 13.59375 -13.671875 C 13.53125 -13.035156 13.359375 -12.476562 13.078125 -12 C 12.804688 -11.519531 12.476562 -11.097656 12.09375 -10.734375 C 11.71875 -10.367188 11.3125 -10.054688 10.875 -9.796875 C 10.4375 -9.546875 10.019531 -9.332031 9.625 -9.15625 C 10.375 -8.351562 11.046875 -7.632812 11.640625 -7 C 12.242188 -6.375 12.78125 -5.816406 13.25 -5.328125 C 13.71875 -4.847656 14.125 -4.429688 14.46875 -4.078125 C 14.8125 -3.734375 15.109375 -3.441406 15.359375 -3.203125 C 15.929688 -2.628906 16.332031 -2.25 16.5625 -2.0625 C 16.800781 -1.875 17.0625 -1.742188 17.34375 -1.671875 C 17.625 -1.597656 17.894531 -1.5625 18.15625 -1.5625 C 18.375 -1.5625 18.582031 -1.582031 18.78125 -1.625 C 18.988281 -1.664062 19.15625 -1.710938 19.28125 -1.765625 C 18.875 -1.492188 18.515625 -1.25 18.203125 -1.03125 C 17.890625 -0.8125 17.601562 -0.625 17.34375 -0.46875 C 17.082031 -0.3125 16.832031 -0.1875 16.59375 -0.09375 C 16.363281 -0.0078125 16.128906 0.03125 15.890625 0.03125 C 15.722656 0.03125 15.554688 0.00390625 15.390625 -0.046875 C 15.222656 -0.0976562 15.046875 -0.175781 14.859375 -0.28125 C 14.679688 -0.394531 14.488281 -0.535156 14.28125 -0.703125 C 14.070312 -0.878906 13.84375 -1.085938 13.59375 -1.328125 C 13.4375 -1.484375 13.195312 -1.742188 12.875 -2.109375 C 12.550781 -2.472656 12.1875 -2.875 11.78125 -3.3125 C 11.382812 -3.757812 10.96875 -4.222656 10.53125 -4.703125 C 10.101562 -5.191406 9.695312 -5.640625 9.3125 -6.046875 C 8.925781 -6.460938 8.585938 -6.816406 8.296875 -7.109375 C 8.003906 -7.410156 7.804688 -7.597656 7.703125 -7.671875 C 7.566406 -7.742188 7.425781 -7.8125 7.28125 -7.875 C 7.164062 -7.925781 7.03125 -7.96875 6.875 -8 C 6.71875 -8.039062 6.566406 -8.054688 6.421875 -8.046875 L 8.265625 -9.3125 C 8.691406 -9.3125 9.097656 -9.410156 9.484375 -9.609375 C 9.867188 -9.804688 10.203125 -10.09375 10.484375 -10.46875 C 10.773438 -10.84375 11 -11.300781 11.15625 -11.84375 C 11.320312 -12.394531 11.390625 -13.015625 11.359375 -13.703125 C 11.335938 -14.109375 11.242188 -14.476562 11.078125 -14.8125 C 10.910156 -15.144531 10.695312 -15.441406 10.4375 -15.703125 C 10.175781 -15.972656 9.878906 -16.203125 9.546875 -16.390625 C 9.222656 -16.585938 8.882812 -16.75 8.53125 -16.875 C 8.1875 -17.007812 7.84375 -17.109375 7.5 -17.171875 C 7.15625 -17.242188 6.835938 -17.28125 6.546875 -17.28125 C 6.347656 -17.28125 6.132812 -17.273438 5.90625 -17.265625 C 5.675781 -17.253906 5.445312 -17.25 5.21875 -17.25 C 5.195312 -15.664062 5.171875 -14.25 5.140625 -13 C 5.109375 -11.75 5.078125 -10.640625 5.046875 -9.671875 C 5.023438 -8.703125 5.003906 -7.863281 4.984375 -7.15625 C 4.960938 -6.457031 4.941406 -5.863281 4.921875 -5.375 C 4.867188 -4.21875 4.820312 -3.4375 4.78125 -3.03125 C 4.75 -2.863281 4.707031 -2.691406 4.65625 -2.515625 C 4.601562 -2.359375 4.53125 -2.191406 4.4375 -2.015625 C 4.351562 -1.835938 4.242188 -1.660156 4.109375 -1.484375 C 4.472656 -1.441406 4.800781 -1.421875 5.09375 -1.421875 C 5.382812 -1.421875 5.65625 -1.421875 5.90625 -1.421875 C 6.488281 -1.421875 6.914062 -1.4375 7.1875 -1.46875 C 7.46875 -1.5 7.628906 -1.523438 7.671875 -1.546875 C 7.222656 -1.316406 6.800781 -1.109375 6.40625 -0.921875 C 6.019531 -0.742188 5.648438 -0.582031 5.296875 -0.4375 C 4.941406 -0.289062 4.597656 -0.175781 4.265625 -0.09375 C 3.941406 -0.0078125 3.625 0.03125 3.3125 0.03125 L 1.09375 0.03125 L 2.21875 -0.71875 C 2.28125 -0.945312 2.335938 -1.210938 2.390625 -1.515625 C 2.441406 -1.816406 2.488281 -2.144531 2.53125 -2.5 C 2.570312 -2.851562 2.609375 -3.21875 2.640625 -3.59375 C 2.671875 -3.976562 2.703125 -4.351562 2.734375 -4.71875 C 2.773438 -5.550781 2.8125 -6.441406 2.84375 -7.390625 C 2.851562 -8.691406 2.867188 -9.945312 2.890625 -11.15625 C 2.898438 -11.675781 2.910156 -12.207031 2.921875 -12.75 C 2.929688 -13.300781 2.9375 -13.835938 2.9375 -14.359375 C 2.9375 -14.890625 2.941406 -15.390625 2.953125 -15.859375 C 2.960938 -16.328125 2.96875 -16.742188 2.96875 -17.109375 L 0.671875 -16.9375 L 3.15625 -18.421875 C 3.300781 -18.398438 3.460938 -18.382812 3.640625 -18.375 C 3.816406 -18.375 3.992188 -18.375 4.171875 -18.375 C 4.546875 -18.375 4.910156 -18.390625 5.265625 -18.421875 C 5.617188 -18.453125 5.972656 -18.484375 6.328125 -18.515625 C 6.679688 -18.554688 7.023438 -18.59375 7.359375 -18.625 C 7.703125 -18.65625 8.046875 -18.671875 8.390625 -18.671875 C 9.078125 -18.671875 9.742188 -18.554688 10.390625 -18.328125 C 11.046875 -18.097656 11.625 -17.765625 12.125 -17.328125 C 12.625 -16.898438 13.007812 -16.375 13.28125 -15.75 C 13.5625 -15.132812 13.664062 -14.441406 13.59375 -13.671875 Z M 19.3125 -1.796875 C 19.300781 -1.785156 19.296875 -1.78125 19.296875 -1.78125 L 19.28125 -1.78125 L 19.28125 -1.765625 L 19.28125 -1.78125 L 19.296875 -1.78125 C 19.296875 -1.789062 19.300781 -1.796875 19.3125 -1.796875 Z M 19.3125 -1.796875 "/></g></g><g style="fill:#ffffff;fill-opacity:1;"><g transform="translate(257.140205, 235.318168)"><path style="stroke:none" d="M 25.71875 -1.515625 C 25.519531 -1.347656 25.238281 -1.15625 24.875 -0.9375 C 24.507812 -0.726562 24.082031 -0.53125 23.59375 -0.34375 C 23.101562 -0.15625 22.5625 0 21.96875 0.125 C 21.382812 0.25 20.773438 0.3125 20.140625 0.3125 C 20.253906 0.113281 20.347656 -0.0664062 20.421875 -0.234375 C 20.492188 -0.398438 20.550781 -0.5625 20.59375 -0.71875 C 20.644531 -0.882812 20.675781 -1.046875 20.6875 -1.203125 C 20.707031 -1.367188 20.71875 -1.550781 20.71875 -1.75 C 20.71875 -1.96875 20.703125 -2.347656 20.671875 -2.890625 C 20.648438 -3.441406 20.617188 -4.085938 20.578125 -4.828125 C 20.546875 -5.566406 20.507812 -6.367188 20.46875 -7.234375 C 20.425781 -8.097656 20.382812 -8.953125 20.34375 -9.796875 C 20.3125 -10.648438 20.28125 -11.457031 20.25 -12.21875 C 20.21875 -12.988281 20.195312 -13.644531 20.1875 -14.1875 C 19.738281 -13.40625 19.296875 -12.679688 18.859375 -12.015625 C 18.421875 -11.347656 17.992188 -10.707031 17.578125 -10.09375 C 17.160156 -9.476562 16.753906 -8.878906 16.359375 -8.296875 C 15.960938 -7.710938 15.578125 -7.101562 15.203125 -6.46875 C 14.835938 -5.84375 14.488281 -5.175781 14.15625 -4.46875 C 13.820312 -3.769531 13.507812 -3.003906 13.21875 -2.171875 L 11.015625 0.3125 C 11.023438 0.0195312 10.96875 -0.332031 10.84375 -0.75 C 10.71875 -1.175781 10.566406 -1.582031 10.390625 -1.96875 C 10.203125 -2.425781 9.984375 -2.898438 9.734375 -3.390625 C 9.441406 -3.910156 9.054688 -4.632812 8.578125 -5.5625 C 8.148438 -6.332031 7.59375 -7.363281 6.90625 -8.65625 C 6.21875 -9.945312 5.359375 -11.550781 4.328125 -13.46875 C 4.273438 -12.425781 4.21875 -11.375 4.15625 -10.3125 C 4.101562 -9.257812 4.03125 -8.210938 3.9375 -7.171875 C 3.84375 -6.128906 3.710938 -5.109375 3.546875 -4.109375 C 3.378906 -3.109375 3.160156 -2.164062 2.890625 -1.28125 C 3.035156 -1.226562 3.195312 -1.1875 3.375 -1.15625 C 3.550781 -1.132812 3.726562 -1.125 3.90625 -1.125 C 4.09375 -1.125 4.269531 -1.128906 4.4375 -1.140625 C 4.613281 -1.160156 4.769531 -1.179688 4.90625 -1.203125 C 5.0625 -1.222656 5.207031 -1.25 5.34375 -1.28125 C 4.988281 -1 4.660156 -0.757812 4.359375 -0.5625 C 4.054688 -0.375 3.742188 -0.210938 3.421875 -0.078125 C 3.109375 0.0546875 2.757812 0.15625 2.375 0.21875 C 2 0.28125 1.546875 0.3125 1.015625 0.3125 C 1.253906 0.0820312 1.457031 -0.296875 1.625 -0.828125 C 1.800781 -1.359375 1.953125 -1.988281 2.078125 -2.71875 C 2.203125 -3.457031 2.304688 -4.269531 2.390625 -5.15625 C 2.472656 -6.050781 2.546875 -6.96875 2.609375 -7.90625 C 2.679688 -8.84375 2.734375 -9.78125 2.765625 -10.71875 C 2.804688 -11.664062 2.847656 -12.5625 2.890625 -13.40625 C 2.929688 -14.25 2.972656 -15.019531 3.015625 -15.71875 C 3.054688 -16.425781 3.113281 -17.003906 3.1875 -17.453125 L 5.03125 -19.5 C 4.96875 -19.363281 4.9375 -19.207031 4.9375 -19.03125 C 4.9375 -18.863281 4.953125 -18.703125 4.984375 -18.546875 C 5.015625 -18.367188 5.066406 -18.1875 5.140625 -18 C 5.179688 -17.894531 5.296875 -17.65625 5.484375 -17.28125 C 5.671875 -16.90625 5.898438 -16.441406 6.171875 -15.890625 C 6.453125 -15.347656 6.773438 -14.726562 7.140625 -14.03125 C 7.503906 -13.34375 7.878906 -12.617188 8.265625 -11.859375 C 8.660156 -11.109375 9.054688 -10.347656 9.453125 -9.578125 C 9.847656 -8.816406 10.226562 -8.082031 10.59375 -7.375 C 10.96875 -6.664062 11.304688 -6.007812 11.609375 -5.40625 C 11.910156 -4.800781 12.164062 -4.285156 12.375 -3.859375 C 13.09375 -4.984375 13.820312 -6.117188 14.5625 -7.265625 C 15.3125 -8.410156 16.023438 -9.550781 16.703125 -10.6875 C 17.390625 -11.820312 18.023438 -12.953125 18.609375 -14.078125 C 19.203125 -15.210938 19.710938 -16.320312 20.140625 -17.40625 L 22.8125 -19.5 C 22.757812 -17.925781 22.742188 -16.414062 22.765625 -14.96875 C 22.796875 -13.53125 22.835938 -12.128906 22.890625 -10.765625 C 22.941406 -9.398438 22.992188 -8.054688 23.046875 -6.734375 C 23.097656 -5.421875 23.125 -4.109375 23.125 -2.796875 C 23.125 -2.410156 23.097656 -2.09375 23.046875 -1.84375 C 23.003906 -1.601562 22.925781 -1.4375 22.8125 -1.34375 C 23.195312 -1.300781 23.59375 -1.28125 24 -1.28125 C 24.34375 -1.28125 24.664062 -1.296875 24.96875 -1.328125 C 25.269531 -1.367188 25.519531 -1.429688 25.71875 -1.515625 Z M 25.71875 -1.515625 "/></g></g><g style="fill:#ffffff;fill-opacity:1;"><g transform="translate(284.914694, 235.318168)"><path style="stroke:none" d="M 11.203125 -9.984375 C 11.117188 -9.953125 11.003906 -9.890625 10.859375 -9.796875 C 10.722656 -9.710938 10.53125 -9.585938 10.28125 -9.421875 C 10.03125 -9.253906 9.695312 -9.023438 9.28125 -8.734375 C 9.351562 -8.867188 9.351562 -8.96875 9.28125 -9.03125 C 9.207031 -9.101562 9.113281 -9.148438 9 -9.171875 C 8.851562 -9.203125 8.679688 -9.21875 8.484375 -9.21875 C 8.179688 -9.1875 7.742188 -9.15625 7.171875 -9.125 C 6.597656 -9.09375 5.945312 -9.0625 5.21875 -9.03125 C 5.21875 -7.675781 5.207031 -6.570312 5.1875 -5.71875 C 5.175781 -4.863281 5.164062 -4.195312 5.15625 -3.71875 C 5.144531 -3.15625 5.128906 -2.742188 5.109375 -2.484375 C 5.085938 -2.316406 5.035156 -2.148438 4.953125 -1.984375 C 4.890625 -1.835938 4.78125 -1.679688 4.625 -1.515625 C 4.476562 -1.359375 4.273438 -1.21875 4.015625 -1.09375 L 9.78125 -1.09375 C 10.050781 -1.09375 10.328125 -1.109375 10.609375 -1.140625 C 10.847656 -1.171875 11.101562 -1.210938 11.375 -1.265625 C 11.644531 -1.328125 11.90625 -1.421875 12.15625 -1.546875 C 11.726562 -1.140625 11.304688 -0.832031 10.890625 -0.625 C 10.472656 -0.414062 10.09375 -0.265625 9.75 -0.171875 C 9.34375 -0.0546875 8.957031 0.0078125 8.59375 0.03125 C 7.757812 0.03125 6.972656 0.03125 6.234375 0.03125 C 5.492188 0.0390625 4.828125 0.0546875 4.234375 0.078125 C 3.640625 0.109375 3.128906 0.140625 2.703125 0.171875 C 2.285156 0.210938 1.984375 0.257812 1.796875 0.3125 C 2.054688 0.0507812 2.257812 -0.203125 2.40625 -0.453125 C 2.5625 -0.710938 2.675781 -1 2.75 -1.3125 C 2.820312 -1.625 2.867188 -1.976562 2.890625 -2.375 C 2.921875 -2.769531 2.929688 -3.238281 2.921875 -3.78125 L 2.921875 -9.015625 C 2.671875 -9.015625 2.425781 -9.015625 2.1875 -9.015625 C 1.957031 -9.023438 1.734375 -9.039062 1.515625 -9.0625 L 2.921875 -9.78125 C 2.921875 -10.238281 2.914062 -10.71875 2.90625 -11.21875 C 2.90625 -11.726562 2.90625 -12.269531 2.90625 -12.84375 C 2.90625 -13.425781 2.898438 -14.050781 2.890625 -14.71875 C 2.890625 -15.382812 2.890625 -16.113281 2.890625 -16.90625 C 2.503906 -16.90625 2.140625 -16.910156 1.796875 -16.921875 C 1.460938 -16.929688 1.148438 -16.941406 0.859375 -16.953125 L 3.234375 -18.21875 C 4.847656 -18.21875 6.222656 -18.226562 7.359375 -18.25 C 8.503906 -18.269531 9.453125 -18.296875 10.203125 -18.328125 C 11.066406 -18.359375 11.789062 -18.390625 12.375 -18.421875 C 12.664062 -18.421875 12.851562 -18.394531 12.9375 -18.34375 C 13.03125 -18.300781 13.066406 -18.253906 13.046875 -18.203125 C 13.035156 -18.148438 12.988281 -18.09375 12.90625 -18.03125 C 12.820312 -17.96875 12.742188 -17.925781 12.671875 -17.90625 C 12.609375 -17.863281 12.484375 -17.789062 12.296875 -17.6875 C 12.128906 -17.59375 11.898438 -17.445312 11.609375 -17.25 C 11.316406 -17.050781 10.914062 -16.78125 10.40625 -16.4375 C 10.582031 -16.625 10.65625 -16.757812 10.625 -16.84375 C 10.601562 -16.9375 10.546875 -17.003906 10.453125 -17.046875 C 10.335938 -17.085938 10.179688 -17.109375 9.984375 -17.109375 C 9.828125 -17.085938 9.585938 -17.070312 9.265625 -17.0625 C 8.941406 -17.050781 8.5625 -17.035156 8.125 -17.015625 C 7.695312 -17.003906 7.234375 -16.988281 6.734375 -16.96875 C 6.234375 -16.957031 5.722656 -16.945312 5.203125 -16.9375 C 5.210938 -15.570312 5.21875 -14.347656 5.21875 -13.265625 C 5.21875 -12.191406 5.21875 -11.207031 5.21875 -10.3125 C 6.09375 -10.3125 6.875 -10.320312 7.5625 -10.34375 C 8.25 -10.375 8.84375 -10.398438 9.34375 -10.421875 C 9.914062 -10.453125 10.425781 -10.484375 10.875 -10.515625 C 11.15625 -10.523438 11.34375 -10.503906 11.4375 -10.453125 C 11.53125 -10.410156 11.566406 -10.359375 11.546875 -10.296875 C 11.535156 -10.242188 11.488281 -10.1875 11.40625 -10.125 C 11.320312 -10.0625 11.253906 -10.015625 11.203125 -9.984375 Z M 11.203125 -9.984375 "/></g></g><g style="fill:#ffffff;fill-opacity:1;"><g transform="translate(300.213772, 235.318168)"><path style="stroke:none" d="M 13.59375 -13.671875 C 13.53125 -13.035156 13.359375 -12.476562 13.078125 -12 C 12.804688 -11.519531 12.476562 -11.097656 12.09375 -10.734375 C 11.71875 -10.367188 11.3125 -10.054688 10.875 -9.796875 C 10.4375 -9.546875 10.019531 -9.332031 9.625 -9.15625 C 10.375 -8.351562 11.046875 -7.632812 11.640625 -7 C 12.242188 -6.375 12.78125 -5.816406 13.25 -5.328125 C 13.71875 -4.847656 14.125 -4.429688 14.46875 -4.078125 C 14.8125 -3.734375 15.109375 -3.441406 15.359375 -3.203125 C 15.929688 -2.628906 16.332031 -2.25 16.5625 -2.0625 C 16.800781 -1.875 17.0625 -1.742188 17.34375 -1.671875 C 17.625 -1.597656 17.894531 -1.5625 18.15625 -1.5625 C 18.375 -1.5625 18.582031 -1.582031 18.78125 -1.625 C 18.988281 -1.664062 19.15625 -1.710938 19.28125 -1.765625 C 18.875 -1.492188 18.515625 -1.25 18.203125 -1.03125 C 17.890625 -0.8125 17.601562 -0.625 17.34375 -0.46875 C 17.082031 -0.3125 16.832031 -0.1875 16.59375 -0.09375 C 16.363281 -0.0078125 16.128906 0.03125 15.890625 0.03125 C 15.722656 0.03125 15.554688 0.00390625 15.390625 -0.046875 C 15.222656 -0.0976562 15.046875 -0.175781 14.859375 -0.28125 C 14.679688 -0.394531 14.488281 -0.535156 14.28125 -0.703125 C 14.070312 -0.878906 13.84375 -1.085938 13.59375 -1.328125 C 13.4375 -1.484375 13.195312 -1.742188 12.875 -2.109375 C 12.550781 -2.472656 12.1875 -2.875 11.78125 -3.3125 C 11.382812 -3.757812 10.96875 -4.222656 10.53125 -4.703125 C 10.101562 -5.191406 9.695312 -5.640625 9.3125 -6.046875 C 8.925781 -6.460938 8.585938 -6.816406 8.296875 -7.109375 C 8.003906 -7.410156 7.804688 -7.597656 7.703125 -7.671875 C 7.566406 -7.742188 7.425781 -7.8125 7.28125 -7.875 C 7.164062 -7.925781 7.03125 -7.96875 6.875 -8 C 6.71875 -8.039062 6.566406 -8.054688 6.421875 -8.046875 L 8.265625 -9.3125 C 8.691406 -9.3125 9.097656 -9.410156 9.484375 -9.609375 C 9.867188 -9.804688 10.203125 -10.09375 10.484375 -10.46875 C 10.773438 -10.84375 11 -11.300781 11.15625 -11.84375 C 11.320312 -12.394531 11.390625 -13.015625 11.359375 -13.703125 C 11.335938 -14.109375 11.242188 -14.476562 11.078125 -14.8125 C 10.910156 -15.144531 10.695312 -15.441406 10.4375 -15.703125 C 10.175781 -15.972656 9.878906 -16.203125 9.546875 -16.390625 C 9.222656 -16.585938 8.882812 -16.75 8.53125 -16.875 C 8.1875 -17.007812 7.84375 -17.109375 7.5 -17.171875 C 7.15625 -17.242188 6.835938 -17.28125 6.546875 -17.28125 C 6.347656 -17.28125 6.132812 -17.273438 5.90625 -17.265625 C 5.675781 -17.253906 5.445312 -17.25 5.21875 -17.25 C 5.195312 -15.664062 5.171875 -14.25 5.140625 -13 C 5.109375 -11.75 5.078125 -10.640625 5.046875 -9.671875 C 5.023438 -8.703125 5.003906 -7.863281 4.984375 -7.15625 C 4.960938 -6.457031 4.941406 -5.863281 4.921875 -5.375 C 4.867188 -4.21875 4.820312 -3.4375 4.78125 -3.03125 C 4.75 -2.863281 4.707031 -2.691406 4.65625 -2.515625 C 4.601562 -2.359375 4.53125 -2.191406 4.4375 -2.015625 C 4.351562 -1.835938 4.242188 -1.660156 4.109375 -1.484375 C 4.472656 -1.441406 4.800781 -1.421875 5.09375 -1.421875 C 5.382812 -1.421875 5.65625 -1.421875 5.90625 -1.421875 C 6.488281 -1.421875 6.914062 -1.4375 7.1875 -1.46875 C 7.46875 -1.5 7.628906 -1.523438 7.671875 -1.546875 C 7.222656 -1.316406 6.800781 -1.109375 6.40625 -0.921875 C 6.019531 -0.742188 5.648438 -0.582031 5.296875 -0.4375 C 4.941406 -0.289062 4.597656 -0.175781 4.265625 -0.09375 C 3.941406 -0.0078125 3.625 0.03125 3.3125 0.03125 L 1.09375 0.03125 L 2.21875 -0.71875 C 2.28125 -0.945312 2.335938 -1.210938 2.390625 -1.515625 C 2.441406 -1.816406 2.488281 -2.144531 2.53125 -2.5 C 2.570312 -2.851562 2.609375 -3.21875 2.640625 -3.59375 C 2.671875 -3.976562 2.703125 -4.351562 2.734375 -4.71875 C 2.773438 -5.550781 2.8125 -6.441406 2.84375 -7.390625 C 2.851562 -8.691406 2.867188 -9.945312 2.890625 -11.15625 C 2.898438 -11.675781 2.910156 -12.207031 2.921875 -12.75 C 2.929688 -13.300781 2.9375 -13.835938 2.9375 -14.359375 C 2.9375 -14.890625 2.941406 -15.390625 2.953125 -15.859375 C 2.960938 -16.328125 2.96875 -16.742188 2.96875 -17.109375 L 0.671875 -16.9375 L 3.15625 -18.421875 C 3.300781 -18.398438 3.460938 -18.382812 3.640625 -18.375 C 3.816406 -18.375 3.992188 -18.375 4.171875 -18.375 C 4.546875 -18.375 4.910156 -18.390625 5.265625 -18.421875 C 5.617188 -18.453125 5.972656 -18.484375 6.328125 -18.515625 C 6.679688 -18.554688 7.023438 -18.59375 7.359375 -18.625 C 7.703125 -18.65625 8.046875 -18.671875 8.390625 -18.671875 C 9.078125 -18.671875 9.742188 -18.554688 10.390625 -18.328125 C 11.046875 -18.097656 11.625 -17.765625 12.125 -17.328125 C 12.625 -16.898438 13.007812 -16.375 13.28125 -15.75 C 13.5625 -15.132812 13.664062 -14.441406 13.59375 -13.671875 Z M 19.3125 -1.796875 C 19.300781 -1.785156 19.296875 -1.78125 19.296875 -1.78125 L 19.28125 -1.78125 L 19.28125 -1.765625 L 19.28125 -1.78125 L 19.296875 -1.78125 C 19.296875 -1.789062 19.300781 -1.796875 19.3125 -1.796875 Z M 19.3125 -1.796875 "/></g></g><g style="fill:#ffffff;fill-opacity:1;"><g transform="translate(319.763741, 235.318168)"><path style="stroke:none" d=""/></g></g></g></svg>